<mxfile host="app.diagrams.net" modified="2023-08-12T21:59:45.295Z" agent="Mozilla/5.0 (Macintosh; Intel Mac OS X 10_15_7) AppleWebKit/605.1.15 (KHTML, like Gecko) Version/16.4 Safari/605.1.15" etag="Zr5Lyo2TkGbxSIxUZFg2" version="21.6.8" type="device">
  <diagram name="Page-1" id="98FlMUlhAc2oBmFe6LD4">
    <mxGraphModel dx="1009" dy="837" grid="1" gridSize="10" guides="1" tooltips="1" connect="1" arrows="1" fold="1" page="1" pageScale="1" pageWidth="850" pageHeight="1100" math="0" shadow="0">
      <root>
        <mxCell id="0" />
        <mxCell id="1" parent="0" />
        <mxCell id="V0FoR2YHSf6wJ4TTVNSK-1" value="" style="rounded=1;whiteSpace=wrap;html=1;glass=0;shadow=0;imageAspect=1;absoluteArcSize=0;arcSize=2;fontColor=#666666;align=center;strokeColor=none;" parent="1" vertex="1">
          <mxGeometry x="40" y="80" width="960" height="620" as="geometry" />
        </mxCell>
        <mxCell id="yOC-pWLaPlWNzJLVpqbV-17" value="Ingestion" style="rounded=1;whiteSpace=wrap;html=1;dashed=1;fillColor=#fff2cc;strokeColor=#d6b656;arcSize=2;verticalAlign=top;align=center;fontStyle=1;fontSize=14;" vertex="1" parent="1">
          <mxGeometry x="50" y="90" width="310" height="360" as="geometry" />
        </mxCell>
        <mxCell id="V0FoR2YHSf6wJ4TTVNSK-40" value="Cloud Storage&lt;br style=&quot;font-size: 12px;&quot;&gt;Data Lake" style="sketch=0;html=1;verticalAlign=top;labelPosition=center;verticalLabelPosition=bottom;align=center;spacingTop=-6;fontSize=12;fontStyle=1;fontColor=#000000;shape=image;aspect=fixed;imageAspect=0;image=data:image/svg+xml,PHN2ZyB4bWxucz0iaHR0cDovL3d3dy53My5vcmcvMjAwMC9zdmciIHhtbG5zOnY9Imh0dHBzOi8vdmVjdGEuaW8vbmFubyIgd2lkdGg9IjIwIiBoZWlnaHQ9IjE2IiB2aWV3Qm94PSIwIDAgMjAgMTYiPiYjeGE7CTxzdHlsZSB0eXBlPSJ0ZXh0L2NzcyI+JiN4YTsJLnN0MHtmaWxsOiM0Mjg1ZjQ7fSYjeGE7CS5zdDF7ZmlsbDojNjY5ZGY2O30mI3hhOwkuc3Qye2ZpbGw6I2FlY2JmYTt9JiN4YTsJLnN0M3tmaWxsOiNmZmY7fSYjeGE7CTwvc3R5bGU+JiN4YTsJPHBhdGggY2xhc3M9InN0MiIgZD0iTTAgMGgyMHY3SDB6Ii8+JiN4YTsJPHBhdGggY2xhc3M9InN0MSIgZD0iTTE4IDBoMnY3aC0yeiIvPiYjeGE7CTxwYXRoIGNsYXNzPSJzdDAiIGQ9Ik0xOCA3bDItN2gtMnoiLz4mI3hhOwk8cGF0aCBjbGFzcz0ic3QxIiBkPSJNMCAwaDJ2N0gweiIvPiYjeGE7CTxnIGNsYXNzPSJzdDMiPiYjeGE7CQk8cGF0aCBkPSJNNCAzaDZ2MUg0eiIvPiYjeGE7CQk8cmVjdCB4PSIxMyIgeT0iMiIgd2lkdGg9IjMiIGhlaWdodD0iMyIgcng9IjEuNSIvPiYjeGE7CTwvZz4mI3hhOwk8cGF0aCBjbGFzcz0ic3QyIiBkPSJNMCA5aDIwdjdIMHoiLz4mI3hhOwk8cGF0aCBjbGFzcz0ic3QxIiBkPSJNMTggOWgydjdoLTJ6Ii8+JiN4YTsJPHBhdGggY2xhc3M9InN0MCIgZD0iTTE4IDE2bDItN2gtMnoiLz4mI3hhOwk8cGF0aCBjbGFzcz0ic3QxIiBkPSJNMCA5aDJ2N0gweiIvPiYjeGE7CTxnIGNsYXNzPSJzdDMiPiYjeGE7CQk8cGF0aCBkPSJNNCAxMmg2djFINHoiLz4mI3hhOwkJPHJlY3QgeD0iMTMiIHk9IjExIiB3aWR0aD0iMyIgaGVpZ2h0PSIzIiByeD0iMS41Ii8+JiN4YTsJPC9nPiYjeGE7PC9zdmc+;" parent="1" vertex="1">
          <mxGeometry x="269.79" y="231.5" width="70.42" height="57" as="geometry" />
        </mxCell>
        <mxCell id="V0FoR2YHSf6wJ4TTVNSK-45" value="&lt;b&gt;Upload&lt;/b&gt;" style="edgeStyle=orthogonalEdgeStyle;rounded=0;orthogonalLoop=1;jettySize=auto;html=1;exitX=1;exitY=0.5;exitDx=0;exitDy=0;labelBackgroundColor=none;verticalAlign=bottom;" parent="1" target="V0FoR2YHSf6wJ4TTVNSK-40" edge="1">
          <mxGeometry x="-0.0651" relative="1" as="geometry">
            <mxPoint x="139.79" y="180" as="sourcePoint" />
            <Array as="points">
              <mxPoint x="139.79" y="181" />
              <mxPoint x="304.79" y="181" />
            </Array>
            <mxPoint as="offset" />
          </mxGeometry>
        </mxCell>
        <mxCell id="V0FoR2YHSf6wJ4TTVNSK-46" style="edgeStyle=orthogonalEdgeStyle;rounded=0;orthogonalLoop=1;jettySize=auto;html=1;exitX=1;exitY=0.5;exitDx=0;exitDy=0;" parent="1" target="V0FoR2YHSf6wJ4TTVNSK-40" edge="1">
          <mxGeometry relative="1" as="geometry">
            <mxPoint x="139.79" y="260" as="sourcePoint" />
          </mxGeometry>
        </mxCell>
        <mxCell id="V0FoR2YHSf6wJ4TTVNSK-47" style="edgeStyle=orthogonalEdgeStyle;rounded=0;orthogonalLoop=1;jettySize=auto;html=1;exitX=1;exitY=0.5;exitDx=0;exitDy=0;" parent="1" target="V0FoR2YHSf6wJ4TTVNSK-40" edge="1">
          <mxGeometry relative="1" as="geometry">
            <Array as="points">
              <mxPoint x="229.79" y="375" />
              <mxPoint x="229.79" y="280" />
            </Array>
            <mxPoint x="133.79" y="375" as="sourcePoint" />
          </mxGeometry>
        </mxCell>
        <mxCell id="yOC-pWLaPlWNzJLVpqbV-26" value="Transformation" style="rounded=1;whiteSpace=wrap;html=1;dashed=1;fillColor=#dae8fc;strokeColor=#6c8ebf;arcSize=2;verticalAlign=top;align=center;fontStyle=1;fontSize=14;dashPattern=1 4;" vertex="1" parent="1">
          <mxGeometry x="370" y="90" width="470" height="360" as="geometry" />
        </mxCell>
        <mxCell id="yOC-pWLaPlWNzJLVpqbV-31" value="" style="edgeStyle=orthogonalEdgeStyle;rounded=0;orthogonalLoop=1;jettySize=auto;html=1;startArrow=none;startFill=0;entryX=-0.007;entryY=0.208;entryDx=0;entryDy=0;entryPerimeter=0;" edge="1" parent="1" source="V0FoR2YHSf6wJ4TTVNSK-40" target="yOC-pWLaPlWNzJLVpqbV-27">
          <mxGeometry relative="1" as="geometry">
            <mxPoint x="390" y="260" as="targetPoint" />
          </mxGeometry>
        </mxCell>
        <mxCell id="yOC-pWLaPlWNzJLVpqbV-35" value="" style="group" vertex="1" connectable="0" parent="1">
          <mxGeometry x="69.78999999999999" y="120" width="80" height="190" as="geometry" />
        </mxCell>
        <mxCell id="V0FoR2YHSf6wJ4TTVNSK-5" value="Internet" style="rounded=1;whiteSpace=wrap;html=1;glass=0;shadow=0;dashed=1;dashPattern=1 1;labelBackgroundColor=none;align=center;verticalAlign=top;fillColor=#f5f5f5;fontColor=#333333;strokeColor=#666666;arcSize=7;" parent="yOC-pWLaPlWNzJLVpqbV-35" vertex="1">
          <mxGeometry width="80" height="190" as="geometry" />
        </mxCell>
        <mxCell id="yOC-pWLaPlWNzJLVpqbV-4" value="file 1" style="shape=image;verticalLabelPosition=bottom;verticalAlign=top;imageAspect=0;aspect=fixed;image=data:image/svg+xml,PHN2ZyB4bWxuczp4bGluaz0iaHR0cDovL3d3dy53My5vcmcvMTk5OS94bGluayIgeG1sbnM9Imh0dHA6Ly93d3cudzMub3JnLzIwMDAvc3ZnIiB4bWw6c3BhY2U9InByZXNlcnZlIiBzdHlsZT0iZW5hYmxlLWJhY2tncm91bmQ6bmV3IDAgMCAxMTUuMjggMTIyLjg4IiB2aWV3Qm94PSIwIDAgMTE1LjI4IDEyMi44OCIgeT0iMHB4IiB4PSIwcHgiIGlkPSJMYXllcl8xIiB2ZXJzaW9uPSIxLjEiPjxzdHlsZSB0eXBlPSJ0ZXh0L2NzcyI+LnN0MHtmaWxsLXJ1bGU6ZXZlbm9kZDtjbGlwLXJ1bGU6ZXZlbm9kZDt9PC9zdHlsZT48Zz48cGF0aCBkPSJNMjUuMzgsNTdoNjQuODhWMzcuMzRINjkuNTljLTIuMTcsMC01LjE5LTEuMTctNi42Mi0yLjZjLTEuNDMtMS40My0yLjMtNC4wMS0yLjMtNi4xN1Y3LjY0bDAsMEg4LjE1IGMtMC4xOCwwLTAuMzIsMC4wOS0wLjQxLDAuMThDNy41OSw3LjkyLDcuNTUsOC4wNSw3LjU1LDguMjR2MTA2LjQ1YzAsMC4xNCwwLjA5LDAuMzIsMC4xOCwwLjQxYzAuMDksMC4xNCwwLjI4LDAuMTgsMC40MSwwLjE4IGMyMi43OCwwLDU4LjA5LDAsODEuNTEsMGMwLjE4LDAsMC4xNy0wLjA5LDAuMjctMC4xOGMwLjE0LTAuMDksMC4zMy0wLjI4LDAuMzMtMC40MXYtMTEuMTZIMjUuMzhjLTQuMTQsMC03LjU2LTMuNC03LjU2LTcuNTYgVjY0LjU1QzE3LjgyLDYwLjQsMjEuMjIsNTcsMjUuMzgsNTdMMjUuMzgsNTd6IE00NS44OCw4Mi4zNWw2LjI5LDEuOWMtMC40MiwxLjc2LTEuMDksMy4yNC0yLDQuNDJjLTAuOTEsMS4xOC0yLjAzLDIuMDgtMy4zOCwyLjY4IGMtMS4zNSwwLjYtMy4wNiwwLjktNS4xNCwwLjljLTIuNTMsMC00LjU5LTAuMzctNi4xOS0xLjFjLTEuNi0wLjc0LTIuOTgtMi4wMy00LjE0LTMuODdjLTEuMTYtMS44NC0xLjc1LTQuMjEtMS43NS03LjA5IGMwLTMuODQsMS4wMi02Ljc5LDMuMDYtOC44NWMyLjA1LTIuMDYsNC45NC0zLjA5LDguNjgtMy4wOWMyLjkyLDAsNS4yMywwLjU5LDYuOSwxLjc3YzEuNjcsMS4xOCwyLjkyLDMsMy43Myw1LjQ1bC02LjMyLDEuNCBjLTAuMjItMC43LTAuNDUtMS4yMi0wLjctMS41NGMtMC40MS0wLjU1LTAuOS0wLjk3LTEuNDgtMS4yNmMtMC41OC0wLjMtMS4yMy0wLjQ0LTEuOTUtMC40NGMtMS42MywwLTIuODgsMC42NS0zLjc1LDEuOTYgYy0wLjY1LDAuOTctMC45OCwyLjQ5LTAuOTgsNC41NmMwLDIuNTcsMC4zOSw0LjMzLDEuMTcsNS4yOWMwLjc4LDAuOTUsMS44OCwxLjQzLDMuMywxLjQzYzEuMzcsMCwyLjQxLTAuMzgsMy4xMS0xLjE2IEM0NS4wNiw4NC45Myw0NS41Niw4My44Miw0NS44OCw4Mi4zNUw0NS44OCw4Mi4zNXogTTU0LjQ3LDg0LjE3bDYuODEtMC40M2MwLjE1LDEuMSwwLjQ1LDEuOTUsMC45LDIuNTIgYzAuNzQsMC45NCwxLjc5LDEuNDEsMy4xNywxLjQxYzEuMDIsMCwxLjgxLTAuMjQsMi4zNi0wLjcyYzAuNTYtMC40OCwwLjgzLTEuMDQsMC44My0xLjY3YzAtMC42LTAuMjYtMS4xNC0wLjc4LTEuNjIgYy0wLjUyLTAuNDgtMS43NS0wLjkyLTMuNjYtMS4zNWMtMy4xNS0wLjctNS4zOC0xLjY0LTYuNzItMi44MmMtMS4zNS0xLjE3LTIuMDMtMi42Ni0yLjAzLTQuNDhjMC0xLjE5LDAuMzUtMi4zMSwxLjA0LTMuMzcgYzAuNjktMS4wNiwxLjczLTEuOSwzLjEyLTIuNWMxLjM5LTAuNjEsMy4yOS0wLjkxLDUuNzEtMC45MWMyLjk3LDAsNS4yMywwLjU1LDYuNzgsMS42NmMxLjU2LDEuMSwyLjQ4LDIuODYsMi43OCw1LjI3bC02Ljc1LDAuNCBjLTAuMTgtMS4wNS0wLjU2LTEuODItMS4xMy0yLjNjLTAuNTgtMC40OC0xLjM3LTAuNzItMi4zOC0wLjcyYy0wLjgzLDAtMS40NiwwLjE4LTEuODksMC41M2MtMC40MiwwLjM1LTAuNjMsMC43OC0wLjYzLDEuMjkgYzAsMC4zNywwLjE3LDAuNywwLjUxLDAuOTljMC4zMywwLjMxLDEuMTMsMC41OSwyLjM5LDAuODVjMy4xNCwwLjY4LDUuMzgsMS4zNiw2LjczLDIuMDVjMS4zNiwwLjY5LDIuMzUsMS41NSwyLjk2LDIuNTcgYzAuNjIsMS4wMiwwLjkyLDIuMTcsMC45MiwzLjQ0YzAsMS40OS0wLjQxLDIuODYtMS4yMyw0LjEyYy0wLjgzLDEuMjUtMS45NywyLjIxLTMuNDUsMi44NmMtMS40OCwwLjY1LTMuMzQsMC45Ny01LjU4LDAuOTcgYy0zLjk1LDAtNi42OC0wLjc2LTguMi0yLjI4QzU1LjUzLDg4LjQ0LDU0LjY3LDg2LjUxLDU0LjQ3LDg0LjE3TDU0LjQ3LDg0LjE3eiBNNzYuOTEsNjguNjNoNy41bDUuMjMsMTYuNzFsNS4xNi0xNi43MWg3LjI4IGwtOC42MiwyMy4yMmgtNy43N0w3Ni45MSw2OC42M0w3Ni45MSw2OC42M3ogTTk3Ljc5LDU3aDkuOTNjNC4xNiwwLDcuNTYsMy40MSw3LjU2LDcuNTZ2MzEuNDJjMCw0LjE1LTMuNDEsNy41Ni03LjU2LDcuNTZoLTkuOTMgdjEzLjU1YzAsMS42MS0wLjY1LDMuMDQtMS43LDQuMWMtMS4wNiwxLjA2LTIuNDksMS43LTQuMSwxLjdjLTI5LjQ0LDAtNTYuNTksMC04Ni4xOCwwYy0xLjYxLDAtMy4wNC0wLjY0LTQuMS0xLjcgYy0xLjA2LTEuMDYtMS43LTIuNDktMS43LTQuMVY1Ljg1YzAtMS42MSwwLjY1LTMuMDQsMS43LTQuMWMxLjA2LTEuMDYsMi41My0xLjcsNC4xLTEuN2g1OC43MkM2NC42NiwwLDY0LjgsMCw2NC45NCwwIGMwLjY0LDAsMS4yOSwwLjI4LDEuNzUsMC42OWgwLjA5YzAuMDksMC4wNSwwLjE0LDAuMDksMC4yMywwLjE4bDI5Ljk5LDMwLjM2YzAuNTEsMC41MSwwLjg4LDEuMiwwLjg4LDEuOTggYzAsMC4yMy0wLjA1LDAuNDEtMC4wOSwwLjY1VjU3TDk3Ljc5LDU3eiBNNjcuNTIsMjcuOTdWOC45NGwyMS40MywyMS43SDcwLjE5Yy0wLjc0LDAtMS4zOC0wLjMyLTEuODktMC43OCBDNjcuODQsMjkuNCw2Ny41MiwyOC43MSw2Ny41MiwyNy45N0w2Ny41MiwyNy45N3oiIGNsYXNzPSJzdDAiLz48L2c+PC9zdmc+;fontStyle=1;" vertex="1" parent="yOC-pWLaPlWNzJLVpqbV-35">
          <mxGeometry x="15.22999999999999" y="30" width="49.55" height="53" as="geometry" />
        </mxCell>
        <mxCell id="yOC-pWLaPlWNzJLVpqbV-16" value="file 2" style="shape=image;verticalLabelPosition=bottom;verticalAlign=top;imageAspect=0;aspect=fixed;image=data:image/svg+xml,PHN2ZyB4bWxuczp4bGluaz0iaHR0cDovL3d3dy53My5vcmcvMTk5OS94bGluayIgeG1sbnM9Imh0dHA6Ly93d3cudzMub3JnLzIwMDAvc3ZnIiB4bWw6c3BhY2U9InByZXNlcnZlIiBzdHlsZT0iZW5hYmxlLWJhY2tncm91bmQ6bmV3IDAgMCAxMTUuMjggMTIyLjg4IiB2aWV3Qm94PSIwIDAgMTE1LjI4IDEyMi44OCIgeT0iMHB4IiB4PSIwcHgiIGlkPSJMYXllcl8xIiB2ZXJzaW9uPSIxLjEiPjxzdHlsZSB0eXBlPSJ0ZXh0L2NzcyI+LnN0MHtmaWxsLXJ1bGU6ZXZlbm9kZDtjbGlwLXJ1bGU6ZXZlbm9kZDt9PC9zdHlsZT48Zz48cGF0aCBkPSJNMjUuMzgsNTdoNjQuODhWMzcuMzRINjkuNTljLTIuMTcsMC01LjE5LTEuMTctNi42Mi0yLjZjLTEuNDMtMS40My0yLjMtNC4wMS0yLjMtNi4xN1Y3LjY0bDAsMEg4LjE1IGMtMC4xOCwwLTAuMzIsMC4wOS0wLjQxLDAuMThDNy41OSw3LjkyLDcuNTUsOC4wNSw3LjU1LDguMjR2MTA2LjQ1YzAsMC4xNCwwLjA5LDAuMzIsMC4xOCwwLjQxYzAuMDksMC4xNCwwLjI4LDAuMTgsMC40MSwwLjE4IGMyMi43OCwwLDU4LjA5LDAsODEuNTEsMGMwLjE4LDAsMC4xNy0wLjA5LDAuMjctMC4xOGMwLjE0LTAuMDksMC4zMy0wLjI4LDAuMzMtMC40MXYtMTEuMTZIMjUuMzhjLTQuMTQsMC03LjU2LTMuNC03LjU2LTcuNTYgVjY0LjU1QzE3LjgyLDYwLjQsMjEuMjIsNTcsMjUuMzgsNTdMMjUuMzgsNTd6IE00NS44OCw4Mi4zNWw2LjI5LDEuOWMtMC40MiwxLjc2LTEuMDksMy4yNC0yLDQuNDJjLTAuOTEsMS4xOC0yLjAzLDIuMDgtMy4zOCwyLjY4IGMtMS4zNSwwLjYtMy4wNiwwLjktNS4xNCwwLjljLTIuNTMsMC00LjU5LTAuMzctNi4xOS0xLjFjLTEuNi0wLjc0LTIuOTgtMi4wMy00LjE0LTMuODdjLTEuMTYtMS44NC0xLjc1LTQuMjEtMS43NS03LjA5IGMwLTMuODQsMS4wMi02Ljc5LDMuMDYtOC44NWMyLjA1LTIuMDYsNC45NC0zLjA5LDguNjgtMy4wOWMyLjkyLDAsNS4yMywwLjU5LDYuOSwxLjc3YzEuNjcsMS4xOCwyLjkyLDMsMy43Myw1LjQ1bC02LjMyLDEuNCBjLTAuMjItMC43LTAuNDUtMS4yMi0wLjctMS41NGMtMC40MS0wLjU1LTAuOS0wLjk3LTEuNDgtMS4yNmMtMC41OC0wLjMtMS4yMy0wLjQ0LTEuOTUtMC40NGMtMS42MywwLTIuODgsMC42NS0zLjc1LDEuOTYgYy0wLjY1LDAuOTctMC45OCwyLjQ5LTAuOTgsNC41NmMwLDIuNTcsMC4zOSw0LjMzLDEuMTcsNS4yOWMwLjc4LDAuOTUsMS44OCwxLjQzLDMuMywxLjQzYzEuMzcsMCwyLjQxLTAuMzgsMy4xMS0xLjE2IEM0NS4wNiw4NC45Myw0NS41Niw4My44Miw0NS44OCw4Mi4zNUw0NS44OCw4Mi4zNXogTTU0LjQ3LDg0LjE3bDYuODEtMC40M2MwLjE1LDEuMSwwLjQ1LDEuOTUsMC45LDIuNTIgYzAuNzQsMC45NCwxLjc5LDEuNDEsMy4xNywxLjQxYzEuMDIsMCwxLjgxLTAuMjQsMi4zNi0wLjcyYzAuNTYtMC40OCwwLjgzLTEuMDQsMC44My0xLjY3YzAtMC42LTAuMjYtMS4xNC0wLjc4LTEuNjIgYy0wLjUyLTAuNDgtMS43NS0wLjkyLTMuNjYtMS4zNWMtMy4xNS0wLjctNS4zOC0xLjY0LTYuNzItMi44MmMtMS4zNS0xLjE3LTIuMDMtMi42Ni0yLjAzLTQuNDhjMC0xLjE5LDAuMzUtMi4zMSwxLjA0LTMuMzcgYzAuNjktMS4wNiwxLjczLTEuOSwzLjEyLTIuNWMxLjM5LTAuNjEsMy4yOS0wLjkxLDUuNzEtMC45MWMyLjk3LDAsNS4yMywwLjU1LDYuNzgsMS42NmMxLjU2LDEuMSwyLjQ4LDIuODYsMi43OCw1LjI3bC02Ljc1LDAuNCBjLTAuMTgtMS4wNS0wLjU2LTEuODItMS4xMy0yLjNjLTAuNTgtMC40OC0xLjM3LTAuNzItMi4zOC0wLjcyYy0wLjgzLDAtMS40NiwwLjE4LTEuODksMC41M2MtMC40MiwwLjM1LTAuNjMsMC43OC0wLjYzLDEuMjkgYzAsMC4zNywwLjE3LDAuNywwLjUxLDAuOTljMC4zMywwLjMxLDEuMTMsMC41OSwyLjM5LDAuODVjMy4xNCwwLjY4LDUuMzgsMS4zNiw2LjczLDIuMDVjMS4zNiwwLjY5LDIuMzUsMS41NSwyLjk2LDIuNTcgYzAuNjIsMS4wMiwwLjkyLDIuMTcsMC45MiwzLjQ0YzAsMS40OS0wLjQxLDIuODYtMS4yMyw0LjEyYy0wLjgzLDEuMjUtMS45NywyLjIxLTMuNDUsMi44NmMtMS40OCwwLjY1LTMuMzQsMC45Ny01LjU4LDAuOTcgYy0zLjk1LDAtNi42OC0wLjc2LTguMi0yLjI4QzU1LjUzLDg4LjQ0LDU0LjY3LDg2LjUxLDU0LjQ3LDg0LjE3TDU0LjQ3LDg0LjE3eiBNNzYuOTEsNjguNjNoNy41bDUuMjMsMTYuNzFsNS4xNi0xNi43MWg3LjI4IGwtOC42MiwyMy4yMmgtNy43N0w3Ni45MSw2OC42M0w3Ni45MSw2OC42M3ogTTk3Ljc5LDU3aDkuOTNjNC4xNiwwLDcuNTYsMy40MSw3LjU2LDcuNTZ2MzEuNDJjMCw0LjE1LTMuNDEsNy41Ni03LjU2LDcuNTZoLTkuOTMgdjEzLjU1YzAsMS42MS0wLjY1LDMuMDQtMS43LDQuMWMtMS4wNiwxLjA2LTIuNDksMS43LTQuMSwxLjdjLTI5LjQ0LDAtNTYuNTksMC04Ni4xOCwwYy0xLjYxLDAtMy4wNC0wLjY0LTQuMS0xLjcgYy0xLjA2LTEuMDYtMS43LTIuNDktMS43LTQuMVY1Ljg1YzAtMS42MSwwLjY1LTMuMDQsMS43LTQuMWMxLjA2LTEuMDYsMi41My0xLjcsNC4xLTEuN2g1OC43MkM2NC42NiwwLDY0LjgsMCw2NC45NCwwIGMwLjY0LDAsMS4yOSwwLjI4LDEuNzUsMC42OWgwLjA5YzAuMDksMC4wNSwwLjE0LDAuMDksMC4yMywwLjE4bDI5Ljk5LDMwLjM2YzAuNTEsMC41MSwwLjg4LDEuMiwwLjg4LDEuOTggYzAsMC4yMy0wLjA1LDAuNDEtMC4wOSwwLjY1VjU3TDk3Ljc5LDU3eiBNNjcuNTIsMjcuOTdWOC45NGwyMS40MywyMS43SDcwLjE5Yy0wLjc0LDAtMS4zOC0wLjMyLTEuODktMC43OCBDNjcuODQsMjkuNCw2Ny41MiwyOC43MSw2Ny41MiwyNy45N0w2Ny41MiwyNy45N3oiIGNsYXNzPSJzdDAiLz48L2c+PC9zdmc+;fontStyle=1;" vertex="1" parent="yOC-pWLaPlWNzJLVpqbV-35">
          <mxGeometry x="15.22999999999999" y="111.5" width="49.55" height="53" as="geometry" />
        </mxCell>
        <mxCell id="yOC-pWLaPlWNzJLVpqbV-36" value="" style="group" vertex="1" connectable="0" parent="1">
          <mxGeometry x="69.78999999999999" y="320" width="80" height="100" as="geometry" />
        </mxCell>
        <mxCell id="V0FoR2YHSf6wJ4TTVNSK-10" value="Local file" style="rounded=1;whiteSpace=wrap;html=1;glass=0;shadow=0;fillColor=#f5f5f5;dashed=1;dashPattern=1 1;labelBackgroundColor=none;align=center;verticalAlign=top;fontColor=#333333;strokeColor=#666666;arcSize=7;" parent="yOC-pWLaPlWNzJLVpqbV-36" vertex="1">
          <mxGeometry width="80" height="100" as="geometry" />
        </mxCell>
        <mxCell id="yOC-pWLaPlWNzJLVpqbV-5" value="Spark job" style="shape=image;verticalLabelPosition=bottom;verticalAlign=top;imageAspect=0;aspect=fixed;image=data:image/svg+xml,PHN2ZyB4bWxuczp4bGluaz0iaHR0cDovL3d3dy53My5vcmcvMTk5OS94bGluayIgeG1sbnM9Imh0dHA6Ly93d3cudzMub3JnLzIwMDAvc3ZnIiBwcmVzZXJ2ZUFzcGVjdFJhdGlvPSJ4TWlkWU1pZCIgdmVyc2lvbj0iMS4xIiB2aWV3Qm94PSIwLjE0NDU1MTA4MzQ0NTU0OSAwLjA3MjI3NTU0OTE3MzM1NTEgMjU1LjM4Mzg2NTM1NjQ0NTMgMjU0LjA1Mzk4NTU5NTcwMzEyIiBoZWlnaHQ9IjI1NC4wNTM5ODU1OTU3MDMxMiIgd2lkdGg9IjI1NS4zODM4NjUzNTY0NDUzIj4mI3hhOyAgICA8ZGVmcz4mI3hhOyAgICAgICAgPGxpbmVhckdyYWRpZW50IGlkPSJsaW5lYXJHcmFkaWVudC0xIiB5Mj0iNzguMjAwODUzOCUiIHgyPSI3OS42Mzg4MzI1JSIgeTE9IjEyLjAzOTM5MjglIiB4MT0iMTIuOTU5MzU5NCUiPiYjeGE7ICAgICAgICAgICAgPHN0b3Agb2Zmc2V0PSIwJSIgc3RvcC1jb2xvcj0iIzM4N0VCOCIvPiYjeGE7ICAgICAgICAgICAgPHN0b3Agb2Zmc2V0PSIxMDAlIiBzdG9wLWNvbG9yPSIjMzY2OTk0Ii8+JiN4YTsgICAgICAgIDwvbGluZWFyR3JhZGllbnQ+JiN4YTsgICAgICAgIDxsaW5lYXJHcmFkaWVudCBpZD0ibGluZWFyR3JhZGllbnQtMiIgeTI9Ijg4LjQyOTAzNzIlIiB4Mj0iOTAuNzQxNTMyOCUiIHkxPSIyMC41NzkxODEzJSIgeDE9IjE5LjEyNzUyNSUiPiYjeGE7ICAgICAgICAgICAgPHN0b3Agb2Zmc2V0PSIwJSIgc3RvcC1jb2xvcj0iI0ZGRTA1MiIvPiYjeGE7ICAgICAgICAgICAgPHN0b3Agb2Zmc2V0PSIxMDAlIiBzdG9wLWNvbG9yPSIjRkZDMzMxIi8+JiN4YTsgICAgICAgIDwvbGluZWFyR3JhZGllbnQ+JiN4YTsgICAgPC9kZWZzPiYjeGE7ICAgIDxnPiYjeGE7ICAgICAgICA8cGF0aCBmaWxsPSJ1cmwoI2xpbmVhckdyYWRpZW50LTEpIiBkPSJNMTI2LjkxNTg2NiwwLjA3MjI3NTU0OTEgQzYyLjA4MzU4MzEsMC4wNzIyODAxNzMzIDY2LjEzMjEyODgsMjguMTg3NDY0OCA2Ni4xMzIxMjg4LDI4LjE4NzQ2NDggTDY2LjIwNDQwNDMsNTcuMzE0NTExNSBMMTI4LjA3MjI3Niw1Ny4zMTQ1MTE1IEwxMjguMDcyMjc2LDY2LjA1OTg1MzIgTDQxLjYzMDcxNzEsNjYuMDU5ODUzMiBDNDEuNjMwNzE3MSw2Ni4wNTk4NTMyIDAuMTQ0NTUxMDk4LDYxLjM1NDk0MzggMC4xNDQ1NTEwOTgsMTI2Ljc3MTMxNSBDMC4xNDQ1NDY0NzQsMTkyLjE4NzY3MyAzNi4zNTQ2MDE5LDE4OS44Njc4NzEgMzYuMzU0NjAxOSwxODkuODY3ODcxIEw1Ny45NjQ5OTE1LDE4OS44Njc4NzEgTDU3Ljk2NDk5MTUsMTU5LjUxMjE0IEM1Ny45NjQ5OTE1LDE1OS41MTIxNCA1Ni44MDAxMzYzLDEyMy4zMDIwODkgOTMuNTk2ODM3OSwxMjMuMzAyMDg5IEwxNTQuOTU4NzgsMTIzLjMwMjA4OSBDMTU0Ljk1ODc4LDEyMy4zMDIwODkgMTg5LjQzNDIxOCwxMjMuODU5Mzg2IDE4OS40MzQyMTgsODkuOTgzMDYwNCBMMTg5LjQzNDIxOCwzMy45Njk1MDg4IEMxODkuNDM0MjE4LDMzLjk2OTUwNDEgMTk0LjY2ODU0MSwwLjA3MjI3NTU0OTEgMTI2LjkxNTg2NiwwLjA3MjI3NTU0OTEgTDEyNi45MTU4NjYsMC4wNzIyNzU1NDkxIEwxMjYuOTE1ODY2LDAuMDcyMjc1NTQ5MSBaIE05Mi44MDE4MDY5LDE5LjY1ODk0OTcgQzk4Ljk1NzIwNjgsMTkuNjU4OTQ1MiAxMDMuOTMyMjQyLDI0LjYzMzk4NDYgMTAzLjkzMjI0MiwzMC43ODkzODQ1IEMxMDMuOTMyMjQ2LDM2Ljk0NDc4NDQgOTguOTU3MjA2OCw0MS45MTk4MTkzIDkyLjgwMTgwNjksNDEuOTE5ODE5MyBDODYuNjQ2NDA3LDQxLjkxOTgyMzkgODEuNjcxMzcyMSwzNi45NDQ3ODQ0IDgxLjY3MTM3MjEsMzAuNzg5Mzg0NSBDODEuNjcxMzY3NCwyNC42MzM5ODQ2IDg2LjY0NjQwNywxOS42NTg5NDk3IDkyLjgwMTgwNjksMTkuNjU4OTQ5NyBMOTIuODAxODA2OSwxOS42NTg5NDk3IEw5Mi44MDE4MDY5LDE5LjY1ODk0OTcgWiIvPiYjeGE7ICAgICAgICA8cGF0aCBmaWxsPSJ1cmwoI2xpbmVhckdyYWRpZW50LTIpIiBkPSJNMTI4Ljc1NzEwMSwyNTQuMTI2MjcxIEMxOTMuNTg5NDAzLDI1NC4xMjYyNzEgMTg5LjU0MDgzOSwyMjYuMDExMDgxIDE4OS41NDA4MzksMjI2LjAxMTA4MSBMMTg5LjQ2ODU2NCwxOTYuODg0MDM1IEwxMjcuNjAwNjkyLDE5Ni44ODQwMzUgTDEyNy42MDA2OTIsMTg4LjEzODY5MyBMMjE0LjA0MjI1MSwxODguMTM4NjkzIEMyMTQuMDQyMjUxLDE4OC4xMzg2OTMgMjU1LjUyODQxNywxOTIuODQzNTg5IDI1NS41Mjg0MTcsMTI3LjQyNzIwOCBDMjU1LjUyODQ0LDYyLjAxMDg1NjYgMjE5LjMxODM2Niw2NC4zMzA2NTg5IDIxOS4zMTgzNjYsNjQuMzMwNjU4OSBMMTk3LjcwNzk3Niw2NC4zMzA2NTg5IEwxOTcuNzA3OTc2LDk0LjY4NjM4MzIgQzE5Ny43MDc5NzYsOTQuNjg2MzgzMiAxOTguODcyODUsMTMwLjg5NjQzNCAxNjIuMDc2MTMsMTMwLjg5NjQzNCBMMTAwLjcxNDE4MiwxMzAuODk2NDM0IEMxMDAuNzE0MTgyLDEzMC44OTY0MzQgNjYuMjM4NzQ1LDEzMC4zMzkxMzggNjYuMjM4NzQ1LDE2NC4yMTU0ODYgTDY2LjIzODc0NSwyMjAuMjI5MDM4IEM2Ni4yMzg3NDUsMjIwLjIyOTAzOCA2MS4wMDQ0MjI1LDI1NC4xMjYyNzEgMTI4Ljc1NzEwMSwyNTQuMTI2MjcxIEwxMjguNzU3MTAxLDI1NC4xMjYyNzEgTDEyOC43NTcxMDEsMjU0LjEyNjI3MSBaIE0xNjIuODcxMTYsMjM0LjUzOTU5NyBDMTU2LjcxNTc1OSwyMzQuNTM5NTk3IDE1MS43NDA3MjYsMjI5LjU2NDU2NCAxNTEuNzQwNzI2LDIyMy40MDkxNjIgQzE1MS43NDA3MjYsMjE3LjI1Mzc1OSAxNTYuNzE1NzU5LDIxMi4yNzg3MjcgMTYyLjg3MTE2LDIxMi4yNzg3MjcgQzE2OS4wMjY1NjMsMjEyLjI3ODcyNyAxNzQuMDAxNTk1LDIxNy4yNTM3NTkgMTc0LjAwMTU5NSwyMjMuNDA5MTYyIEMxNzQuMDAxNjE4LDIyOS41NjQ1NjQgMTY5LjAyNjU2MywyMzQuNTM5NTk3IDE2Mi44NzExNiwyMzQuNTM5NTk3IEwxNjIuODcxMTYsMjM0LjUzOTU5NyBMMTYyLjg3MTE2LDIzNC41Mzk1OTcgWiIvPiYjeGE7ICAgIDwvZz4mI3hhOzwvc3ZnPg==;fontStyle=1;container=1;" vertex="1" parent="yOC-pWLaPlWNzJLVpqbV-36">
          <mxGeometry x="15.22999999999999" y="23.5" width="53.21" height="53" as="geometry" />
        </mxCell>
        <mxCell id="yOC-pWLaPlWNzJLVpqbV-43" value="" style="rounded=1;whiteSpace=wrap;html=1;glass=0;shadow=0;dashed=1;dashPattern=1 1;labelBackgroundColor=none;align=center;verticalAlign=top;fillColor=#d5e8d4;strokeColor=#82b366;arcSize=5;" vertex="1" parent="1">
          <mxGeometry x="660" y="150" width="134" height="250" as="geometry" />
        </mxCell>
        <mxCell id="yOC-pWLaPlWNzJLVpqbV-41" value="" style="shape=image;verticalLabelPosition=bottom;verticalAlign=top;imageAspect=0;aspect=fixed;image=data:image/svg+xml,PHN2ZyB4bWxuczp4bGluaz0iaHR0cDovL3d3dy53My5vcmcvMTk5OS94bGluayIgeG1sbnM9Imh0dHA6Ly93d3cudzMub3JnLzIwMDAvc3ZnIiBwcmVzZXJ2ZUFzcGVjdFJhdGlvPSJ4TWlkWU1pZCIgdmVyc2lvbj0iMS4xIiB2aWV3Qm94PSIwIDAgNTEyIDE5NS40Njc5MjYwMjUzOTA2MiIgaGVpZ2h0PSIxOTUuNDY3OTI2MDI1MzkwNjIiIHdpZHRoPSI1MTIiPiYjeGE7ICAgIDx0aXRsZT5kYnQ8L3RpdGxlPiYjeGE7ICAgIDxnPiYjeGE7ICAgICAgICA8cGF0aCBmaWxsPSIjMjYyQTM4IiBkPSJNMzM0LjczNDQ4MSwzMC4yMjE1MTMzIEwzMzQuNzM0NDgxLDE2My42NTU5NTYgTDMwNy42OTI1NzksMTYzLjY1NTk1NiBMMzA3LjY5MjU3OSwxNTAuMDQ3MjYyIEMzMDQuODY0ODEsMTU0LjgxOTA2OCAzMDAuODAxMjQ5LDE1OC43MDczNiAyOTUuODUxNTY3LDE2MS4xODE1NDkgQzI5MC41NTAwNDIsMTYzLjgzMjUyOSAyODQuNTQwNDg5LDE2NS4yNDY0MTMgMjc4LjUzMzEwOCwxNjUuMjQ2NDEzIEMyNzEuMTA5NjcxLDE2NS40MjMyMDMgMjYzLjY4NjIzMywxNjMuMzAyMzc2IDI1Ny41MDA3NTksMTU5LjA2MDcyMiBDMjUxLjEzOTM2NCwxNTQuODE5MDY4IDI0Ni4xODk2ODIsMTQ4Ljk4Njk1NyAyNDMuMDA3ODk4LDE0Mi4wOTQzMjMgQzIzOS40NzQyNzMsMTM0LjE0MTE2OCAyMzcuNzA2Mzc0LDEyNS42NTgwNzcgMjM3Ljg4MjI5NSwxMTYuOTk3OTc5IEMyMzcuNzA2Mzc0LDEwOC4zMzgwOTggMjM5LjQ3NDI3Myw5OS44NTQ3OTA0IDI0My4wMDc4OTgsOTIuMDc4NjQxOSBDMjQ2LjE4OTY4Miw4NS4zNjI1ODExIDI1MS4xMzkzNjQsNzkuNTMwNDY5OCAyNTcuMzI0ODM4LDc1LjQ2NTYwNTYgQzI2My42ODYyMzMsNzEuNDAwNzQxNSAyNzEuMTA5NjcxLDY5LjQ1NjQ4NzIgMjc4LjUzMzEwOCw2OS42MzMyNzcxIEMyODQuMzY0NTY4LDY5LjYzMzI3NzEgMjkwLjE5NjAyOCw3MC44NzAzNzE4IDI5NS4zMjE2MzEsNzMuNTIxMzUxMyBDMzAwLjI3MTMxNCw3NS45OTU3NTgxIDMwNC4zMzQ4NzUsNzkuNzA3MDQyNCAzMDcuMTYyNjQ0LDg0LjMwMjI3NjIgTDMwNy4xNjI2NDQsMzkuMjM0OTczOCBMMzM0LjczNDQ4MSwzMC4yMjE1MTMzIFogTTMwMi4yMTUxMzMsMTM3LjMyMjUxNyBDMzA1Ljc0ODc1OSwxMzIuNzI3MjgzIDMwNy42OTI1NzksMTI2LjAxMTQ0IDMwNy42OTI1NzksMTE3LjM1MTU1OSBDMzA3LjY5MjU3OSwxMDguNjkxNDYxIDMwNS45MjY4NTIsMTAyLjE1MjQwNyAzMDIuMjE1MTMzLDk3LjU1NzM5MDcgQzI5OC41MDM0MTUsOTIuOTYyMTU2OSAyOTIuNjY5NzgzLDkwLjMxMTE3NzUgMjg2LjY2MjQwMiw5MC40ODc5Njc0IEMyODAuNjUyODQ5LDkwLjEzNDM4NzYgMjc0LjgyMTM4OSw5Mi43ODUzNjcxIDI3MC45MzE1NzgsOTcuMzgwNjAwOCBDMjY3LjIyMjAzMSwxMDEuOTc1NjE3IDI2NS4yNzYwMzksMTA4LjUxNDg4OCAyNjUuMjc2MDM5LDExNi45OTc5NzkgQzI2NS4yNzYwMzksMTI1LjY1ODA3NyAyNjcuMjIyMDMxLDEzMi4zNzM5MjEgMjcwLjkzMTU3OCwxMzcuMTQ1NzI3IEMyNzQuNjQzMjk2LDE0MS45MTc1MzQgMjgwLjY1Mjg0OSwxNDQuNTY4NTEzIDI4Ni42NjI0MDIsMTQ0LjM5MTk0IEMyOTMuMzc3ODExLDE0NC4zOTE5NCAyOTguNjc5MzM2LDE0MS45MTc1MzQgMzAyLjIxNTEzMywxMzcuMzIyNTE3IFogTTQzMS40MDg1NzQsNzUuMjg4ODE1NyBDNDM3Ljc2OTk2OSw3OS4zNTM2Nzk5IDQ0Mi43MTk2NTEsODUuMTg2MDA4NCA0NDUuNzIzMzQyLDkxLjkwMTg1MiBDNDQ5LjI1Njk2Nyw5OS42NzgyMTc3IDQ1MS4wMjQ4NjYsMTA4LjE2MTMwOSA0NTAuODQ4OTQ1LDExNi44MjE0MDYgQzQ1MS4wMjQ4NjYsMTI1LjQ4MTI4NyA0NDkuMjU2OTY3LDEzNC4xNDEzODUgNDQ1LjcyMzM0MiwxNDEuOTE3NTM0IEM0NDIuNTQxNTU4LDE0OC44MTAxNjcgNDM3LjU5NDA0OCwxNTQuNjQyNDk2IDQzMS4yMzA0ODEsMTU4Ljg4NDE1IEM0MjUuMDQ1MDA3LDE2Mi45NDkwMTQgNDE3LjYyMTU2OSwxNjUuMDY5ODQxIDQxMC4yMDAzMDQsMTY0Ljg5MzA1MSBDNDA0LjE5MDc1MSwxNjUuMDY5ODQxIDM5OC4xODExOTgsMTYzLjY1NTk1NiAzOTIuODc5Njc0LDE2MC44MjgxODcgQzM4Ny45MzIxNjMsMTU4LjM1Mzc4IDM4My44NjY0MywxNTQuNDY1NzA2IDM4MS4yMTQ1ODIsMTQ5LjY5Mzg5OSBMMzgxLjIxNDU4MiwxNjMuNDc5MTY2IEwzNTMuOTk4OTMxLDE2My40NzkxNjYgTDM1My45OTg5MzEsMzkuMjM0OTczOCBMMzgxLjM5MjY3NSwzMC4yMjE1MTMzIEwzODEuMzkyNjc1LDg0LjY1NTYzODggQzM4NC4wNDIzNTEsNzkuODgzODMyMyAzODguMTA4MDg0LDc1Ljk5NTc1ODEgMzkzLjA1NTU5NSw3My41MjEzNTEzIEMzOTguMzU5MjkxLDcwLjY5Mzc5OTIgNDA0LjE5MDc1MSw2OS4yNzk5MTQ1IDQxMC4yMDAzMDQsNjkuNDU2NDg3MiBDNDE3LjYyMTU2OSw2OS4yNzk5MTQ1IDQyNS4wNDUwMDcsNzEuNDAwNzQxNSA0MzEuNDA4NTc0LDc1LjI4ODgxNTcgWiBNNDE3Ljk3NTU4MywxMzcuMTQ1NzI3IEM0MjEuNjg3MzAyLDEzMi4zNzM5MjEgNDIzLjQ1NTIwMSwxMjUuNjU4MDc3IDQyMy40NTUyMDEsMTE2LjgyMTQwNiBDNDIzLjQ1NTIwMSwxMDguMzM4MDk4IDQyMS42ODczMDIsMTAxLjc5ODgyOCA0MTcuOTc1NTgzLDk3LjIwMzgxMDkgQzQxNC4yNjM4NjUsOTIuNjA4Nzk0NCA0MDkuMTM4MjYxLDkwLjMxMTE3NzUgNDAyLjQyMjg1Miw5MC4zMTExNzc1IEMzOTYuNDE1NDcxLDg5Ljk1NzgxNDkgMzkwLjU4MTgzOSw5Mi42MDg3OTQ0IDM4Ni42OTQyLDk3LjM4MDYwMDggQzM4Mi45ODI0ODEsMTAyLjE1MjQwNyAzODEuMjE0NTgyLDEwOC42OTE0NjEgMzgxLjIxNDU4MiwxMTcuMTc0NzY5IEMzODEuMjE0NTgyLDEyNS44MzQ4NjcgMzgyLjk4MjQ4MSwxMzIuNTUwNzExIDM4Ni42OTQyLDEzNy4xNDU3MjcgQzM5MC40MDU5MTgsMTQxLjkxNzUzNCAzOTYuMjM3Mzc4LDE0NC41Njg1MTMgNDAyLjQyMjg1MiwxNDQuMjE1MTUgQzQwOC40MzI0MDUsMTQ0LjU2ODUxMyA0MTQuMjYzODY1LDE0MS45MTc1MzQgNDE3Ljk3NTU4MywxMzcuMTQ1NzI3IFogTTQ4OC42Njk4MTcsOTIuMjU1MjE0NiBMNDg4LjY2OTgxNywxMjcuOTU1NDc3IEM0ODguNjY5ODE3LDEzMy4wODA4NjMgNDkwLjA4MzcwMiwxMzYuNzkyMzY1IDQ5Mi41NTk2MjksMTM5LjA4OTc2NCBDNDk1LjM4NzM5OCwxNDEuNTY0MTcxIDQ5OS4wOTY5NDUsMTQyLjgwMTI2NiA1MDIuOTg2NzU3LDE0Mi42MjQ0NzYgQzUwNS45OTA0NDcsMTQyLjYyNDQ3NiA1MDkuMTcyMjMxLDE0Mi4wOTQzMjMgNTEyLDE0MS4zODczODEgTDUxMiwxNjIuNTk1NDM0IEM1MDYuODc0Mzk3LDE2NC4zNjI4OTggNTAxLjU3Mjg3MiwxNjUuMjQ2NDEzIDQ5Ni4yNjkxNzYsMTY1LjA2OTg0MSBDNDg0Ljk2MDI3LDE2NS4wNjk4NDEgNDc2LjI5ODg2OSwxNjEuODg4NDkyIDQ3MC4yODkzMTYsMTU1LjUyNjAxMSBDNDY0LjI4MTkzNSwxNDkuMTYzNzQ3IDQ2MS4yNzYwNzMsMTQwLjE1MDI4NiA0NjEuMjc2MDczLDEyOC40ODU4NDYgTDQ2MS4yNzYwNzMsNTAuMTkyNDcxNCBMNDg4LjY2OTgxNyw0MS4zNTU4MDA4IEw0ODguNjY5ODE3LDcxLjc1NDEwNDEgTDUxMiw3MS43NTQxMDQxIEw1MTIsOTIuMjU1MjE0NiBMNDg4LjY2OTgxNyw5Mi4yNTUyMTQ2IEw0ODguNjY5ODE3LDkyLjI1NTIxNDYgWiIvPiYjeGE7ICAgICAgICA8cGF0aCBmaWxsPSIjRkY2OTRBIiBkPSJNMTg3LjE2MTQwOSw4LjEyOTc3MTcgQzE5MS43NTY0MjUsMTIuNTQ4MTI4NyAxOTQuNzYwOTg0LDE4LjM4MDM0ODcgMTk1LjQ2NzkyNywyNC43NDI3NjQ1IEMxOTUuNDY3OTI3LDI3LjM5Mzc0NCAxOTQuNzYwOTg0LDI5LjE2MTIwODQgMTkzLjE3MDMxLDMyLjUxOTEzMDIgQzE5MS41Nzk4NTMsMzUuODc3MDUyIDE3MS45NjIyNTcsNjkuODEwMDY2OSAxNjYuMTMwMTQ2LDc5LjE3Njg5IEMxNjIuNzcyMjI0LDg0LjY1NTYzODggMTYxLjAwNDc1OSw5MS4xOTQ5MDk3IDE2MS4wMDQ3NTksOTcuNTU3MTczNSBDMTYxLjAwNDc1OSwxMDQuMDk2NDQ0IDE2Mi43NzIyMjQsMTEwLjQ1ODkyNSAxNjYuMTMwMTQ2LDExNS45Mzc2NzQgQzE3MS45NjIyNTcsMTI1LjMwNDQ5NyAxOTEuNTc5ODUzLDE1OS40MTQwODUgMTkzLjE3MDMxLDE2Mi43NzIyMjQgQzE5NC43NjA5ODQsMTY2LjEzMDE0NiAxOTUuNDY3OTI3LDE2Ny43MjA2MDMgMTk1LjQ2NzkyNywxNzAuMzcxNTgyIEMxOTQuNzYwOTg0LDE3Ni43MzQwNjQgMTkxLjkzMzIxNSwxODIuNTY2MzkyIDE4Ny4zMzgxOTksMTg2LjgwODA0NiBDMTgyLjkxOTc1NSwxOTEuNDAzMDYzIDE3Ny4wODc2NDMsMTk0LjQwNzYyMiAxNzAuOTAxOTUyLDE5NC45Mzc3NzQgQzE2OC4yNTA5NzMsMTk0LjkzNzc3NCAxNjYuNDgzNTA4LDE5NC4yMzA4MzIgMTYzLjMwMjM3NiwxOTIuNjQwMTU3IEMxNjAuMTIxMDI3LDE5MS4wNDk0ODMgMTI1LjQ4MTI4NywxNzEuOTYyMjU3IDExNi4xMTQyNDcsMTY2LjEzMDE0NiBDMTE1LjQwNzMwNSwxNjUuNzc2NTY2IDExNC43MDAzNjIsMTY1LjI0NjQxMyAxMTMuODE2ODQ3LDE2NC44OTI4MzQgTDY3LjUxMjQ1MDEsMTM3LjQ5OTA5IEM2OC41NzI3NTUsMTQ2LjMzNTc2IDcyLjQ2MTA0NjQsMTU0LjgxOTA2OCA3OC44MjMzMTAyLDE2MS4wMDQ3NTkgQzgwLjA2MDYyMjIsMTYyLjI0MTg1NCA4MS4yOTc3MTcsMTYzLjMwMjM3NiA4Mi43MTE2MDE3LDE2NC4zNjI2ODEgQzgxLjY1MTA3OTYsMTY0Ljg5MjgzNCA4MC40MTM5ODQ4LDE2NS40MjMyMDMgNzkuMzUzNjc5OSwxNjYuMTMwMTQ2IEM2OS45ODY2Mzk2LDE3MS45NjIyNTcgMzUuODc3MDUyLDE5MS41Nzk4NTMgMzIuNTE5MTMwMiwxOTMuMTcwMzEgQzI5LjE2MTIwODQsMTk0Ljc2MDk4NCAyNy41NzA1MzM5LDE5NS40Njc5MjcgMjQuNzQyNzY0NSwxOTUuNDY3OTI3IEMxOC4zODAzNDg3LDE5NC43NjA5ODQgMTIuNTQ4MTI4NywxOTEuOTMzMjE1IDguMzA2NDk2NDIsMTg3LjMzODE5OSBDMy43MTE0MTQ2OCwxODIuOTE5NzU1IDAuNzA2OTM1ODIsMTc3LjA4NzY0MyAwLDE3MC43MjUxNjIgQzAuMTc2NzM0MDY0LDE2OC4wNzQxODMgMC44ODM2NzE0MDMsMTY1LjQyMzIwMyAyLjI5NzU1MTczLDE2My4xMjU1ODYgQzMuODg4MTYxMTMsMTU5Ljc2NzY2NSAyMy41MDU2Njk4LDEyNS42NTc4NiAyOS4zMzc3ODExLDExNi4yOTEwMzcgQzMyLjY5NTkyMDEsMTEwLjgxMjI4OCAzNC40NjMxNjc0LDEwNC40NDk4MDcgMzQuNDYzMTY3NCw5Ny45MTA3NTMzIEMzNC40NjMxNjc0LDkxLjM3MTQ4MjQgMzIuNjk1OTIwMSw4NS4wMDkwMDE0IDI5LjMzNzc4MTEsNzkuNTMwMjUyNiBDMjMuNTA1NjY5OCw2OS44MTAwNjY5IDMuNzExNDE0NjgsMzUuNzAwMjYyMiAyLjI5NzU1MTczLDMyLjM0MjM0MDQgQzAuODgzNjcxNDAzLDMwLjA0NDcyMzUgMC4xNzY3MzQwNjQsMjcuMzkzNzQ0IDAsMjQuNzQyNzY0NSBDMC43MDY5MzU4MiwxOC4zODAzNDg3IDMuNTM0Njg5OTYsMTIuNTQ4MTI4NyA4LjEyOTc3MTcsOC4xMjk3NzE3IEMxMi41NDgxMjg3LDMuNTM0Njg5OTYgMTguMzgwMzQ4NywwLjcwNjkzNTgyIDI0Ljc0Mjc2NDUsMCBDMjcuMzkzNzQ0LDAuMTc2NzM0MDY0IDMwLjA0NDcyMzUsMC44ODM2NzE0MDMgMzIuNTE5MTMwMiwyLjI5NzU1MTczIEMzNS4zNDY4OTk2LDMuNTM0Njg5OTYgNjAuMjY2MjM2OCwxOC4wMjY4Nzc1IDczLjUyMTM1MTMsMjUuODAzMjg2NiBMNzYuNTI1OTEwNSwyNy41NzA1MzM5IEM3Ny41ODYyMTU0LDI4LjI3NzQ3NjIgNzguNDY5OTQ3NywyOC44MDc2Mjg3IDc5LjE3Njg5LDI5LjE2MTIwODQgTDgwLjU5MDc3NDcsMzAuMDQ0NzIzNSBMMTI3Ljc3ODY4Nyw1Ny45Njg4MzcxIEMxMjYuNzE4MzgyLDQ3LjM2NDcwMjEgMTIxLjIzOTYzMywzNy42NDQyOTkzIDExMi43NTYzMjUsMzEuMTA1MjQ1NiBDMTEzLjgxNjg0NywzMC41NzUwOTMxIDExNS4wNTM5NDIsMzAuMDQ0NzIzNSAxMTYuMTE0MjQ3LDI5LjMzNzc4MTEgQzEyNS40ODEyODcsMjMuNTA1NjY5OCAxNTkuNTkwODc1LDMuNzExNDE0NjggMTYyLjk0ODc5NywyLjI5NzU1MTczIEMxNjUuMjQ2NDEzLDAuODgzNjcxNDAzIDE2Ny44OTczOTMsMC4xNzY3MzQwNjQgMTcwLjcyNTE2MiwwIEMxNzYuOTEwODUzLDAuNzA2OTM1ODIgMTgyLjc0MzE4MiwzLjUzNDY4OTk2IDE4Ny4xNjE0MDksOC4xMjk3NzE3IFogTTEwMC4yMDgxNTMsMTEwLjI4MjEzNiBMMTEwLjI4MjEzNiwxMDAuMjA4MTUzIEMxMTEuNjk2MDIsOTguNzk0MjY4MyAxMTEuNjk2MDIsOTYuNjczNjU4NSAxMTAuMjgyMTM2LDk1LjI1OTc3MzggTDEwMC4yMDgxNTMsODUuMTg1NzkxMiBDOTguNzk0MjY4Myw4My43NzE5MDY2IDk2LjY3MzY1ODUsODMuNzcxOTA2NiA5NS4yNTk3NzM4LDg1LjE4NTc5MTIgTDg1LjE4NTc5MTIsOTUuMjU5NzczOCBDODMuNzcxOTA2Niw5Ni42NzM2NTg1IDgzLjc3MTkwNjYsOTguNzk0MjY4MyA4NS4xODU3OTEyLDEwMC4yMDgxNTMgTDk1LjI1OTc3MzgsMTEwLjI4MjEzNiBDOTYuNDk2ODY4NiwxMTEuNTE5MjMgOTguNzk0MjY4MywxMTEuNTE5MjMgMTAwLjIwODE1MywxMTAuMjgyMTM2IFoiLz4mI3hhOyAgICA8L2c+JiN4YTs8L3N2Zz4=" vertex="1" parent="1">
          <mxGeometry x="681.05" y="340" width="91.9" height="35" as="geometry" />
        </mxCell>
        <mxCell id="yOC-pWLaPlWNzJLVpqbV-51" style="edgeStyle=orthogonalEdgeStyle;rounded=0;orthogonalLoop=1;jettySize=auto;html=1;startArrow=classic;startFill=1;" edge="1" parent="1" source="yOC-pWLaPlWNzJLVpqbV-34" target="yOC-pWLaPlWNzJLVpqbV-41">
          <mxGeometry relative="1" as="geometry" />
        </mxCell>
        <mxCell id="yOC-pWLaPlWNzJLVpqbV-34" value="BigQuery&#xa;Data Warehouse" style="shape=image;verticalLabelPosition=bottom;verticalAlign=top;imageAspect=0;aspect=fixed;image=data:image/svg+xml,PHN2ZyB4bWxucz0iaHR0cDovL3d3dy53My5vcmcvMjAwMC9zdmciIGhlaWdodD0iNjQiIHdpZHRoPSI2NCIgdmlld0JveD0iMCAwIDY0IDY0Ij48cGF0aCBmaWxsPSIjNDM4NmZhIiBkPSJNMTQuNDggNTguMTk2TC41NTggMzQuMDgyYy0uNzQ0LTEuMjg4LS43NDQtMi44NzYgMC00LjE2NEwxNC40OCA1LjgwNWMuNzQzLTEuMjg3IDIuMTE1LTIuMDggMy42LTIuMDgyaDI3Ljg1N2MxLjQ4LjAwNyAyLjg0NS44IDMuNTg1IDIuMDgybDEzLjkyIDI0LjExM2MuNzQ0IDEuMjg4Ljc0NCAyLjg3NiAwIDQuMTY0TDQ5LjUyIDU4LjE5NmMtLjc0MyAxLjI4Ny0yLjExNSAyLjA4LTMuNiAyLjA4MkgxOC4wN2MtMS40ODMtLjAwNS0yLjg1LS43OTgtMy41OTMtMi4wODJ6Ii8+PHBhdGggb3BhY2l0eT0iLjEiIGQ9Ik00MC42OTcgMjQuMjM1czMuODcgOS4yODMtMS40MDYgMTQuNTQ1LTE0Ljg4MyAxLjg5NC0xNC44ODMgMS44OTRMNDMuOTUgNjAuMjdoMS45ODRjMS40ODYtLjAwMiAyLjg1OC0uNzk2IDMuNi0yLjA4Mkw1OC43NSA0Mi4yM3oiLz48cGF0aCBmaWxsPSIjZmZmIiBkPSJNNDUuMjY3IDQzLjIzTDQxIDM4Ljk1M2EuNjcuNjcgMCAwIDAtLjE1OC0uMTIgMTEuNjMgMTEuNjMgMCAxIDAtMi4wMzIgMi4wMzcuNjcuNjcgMCAwIDAgLjExMy4xNWw0LjI3NyA0LjI3N2EuNjcuNjcgMCAwIDAgLjk0NyAwbDEuMTItMS4xMmEuNjcuNjcgMCAwIDAgMC0uOTQ3ek0zMS42NCA0MC40NjRhOC43NSA4Ljc1IDAgMSAxIDguNzQ5LTguNzQ5IDguNzUgOC43NSAwIDAgMS04Ljc0OSA4Ljc0OXptLTUuNTkzLTkuMjE2djMuNjE2Yy41NTcuOTgzIDEuMzYzIDEuODAzIDIuMzM4IDIuMzc1di02LjAxM3ptNC4zNzUtMi45OTh2OS43NzJhNi40NSA2LjQ1IDAgMCAwIDIuMzM4IDBWMjguMjV6bTYuNzY0IDYuNjA2di0yLjE0MkgzNC44NXY0LjVhNi40MyA2LjQzIDAgMCAwIDIuMzM4LTIuMzY4eiIvPjwvc3ZnPg==;fontStyle=1" vertex="1" parent="1">
          <mxGeometry x="695" y="163.01" width="64" height="64" as="geometry" />
        </mxCell>
        <mxCell id="yOC-pWLaPlWNzJLVpqbV-27" value="" style="rounded=1;whiteSpace=wrap;html=1;glass=0;shadow=0;dashed=1;dashPattern=1 1;labelBackgroundColor=none;align=center;verticalAlign=top;fillColor=#e1d5e7;strokeColor=#9673a6;arcSize=5;" vertex="1" parent="1">
          <mxGeometry x="426" y="150" width="134" height="250" as="geometry" />
        </mxCell>
        <mxCell id="yOC-pWLaPlWNzJLVpqbV-29" value="Dataproc&#xa;Cluster" style="shape=image;verticalLabelPosition=bottom;verticalAlign=top;imageAspect=0;aspect=fixed;image=data:image/svg+xml,PHN2ZyB4bWxucz0iaHR0cDovL3d3dy53My5vcmcvMjAwMC9zdmciIHZpZXdCb3g9IjAgMCAyNCAyNCI+PHBhdGggZmlsbD0ibm9uZSIgZD0ibTIgMmgyMHYyMGgtMjB6Ii8+PGcgZmlsbC1ydWxlPSJldmVub2RkIj48cGF0aCBmaWxsPSIjYWVjYmZhIiBkPSJtMTcuODUgMTQuMi0xMC4xOCA1Ljg4LS45OC0xLjY4IDEwLjE5LTUuODl6Ii8+PHBhdGggZmlsbD0iI2FlY2JmYSIgZD0ibTcuNjMgMTguMTZ2LTExLjc2aDEuODd2MTAuMzV6Ii8+PHBhdGggZmlsbD0iI2FlY2JmYSIgZD0ibTkuNTYgOS42OS0uMjYtMi4zNiAxMC4xOSA1Ljg3LS45NyAxLjY4eiIvPjxwYXRoIGZpbGw9IiM0Mjg1ZjQiIGQ9Im0xNC4zOSAxMC4yNi01LjA5LTIuOTMuMjYgMi4zNiAxLjUxLjg2YTQgNCAwIDAgMCAzLjMyLS4yOXoiLz48cGF0aCBmaWxsPSIjYWVjYmZhIiBkPSJtOC4xMyA4LjI5YTMuNzggMy43OCAwIDEgMSAzLjI3IDEuODkgMy44IDMuOCAwIDAgMSAtMy4yNy0xLjg5em00Ljg3LTIuOGExLjg0IDEuODQgMCAwIDAgLTEuNTktLjkyIDEuODMgMS44MyAwIDAgMCAtMS44NCAxLjgzIDEuODQgMS44NCAwIDEgMCAzLjY3IDAgMS44IDEuOCAwIDAgMCAtLjI0LS45MXoiLz48cGF0aCBmaWxsPSIjNDI4NWY0IiBkPSJtNy42MyAxMi45NHY1LjIybDEuODctMS40MXYtMS42M2EzLjI5IDMuMjkgMCAwIDAgLTEuODctMi4xOHoiLz48cGF0aCBmaWxsPSIjNDI4NWY0IiBkPSJtMTMuMzMgMTYuODEgNC41Mi0yLjYxLTIuMjEtMS0xLjI1LjhhNC4yMyA0LjIzIDAgMCAwIC0xLjA2IDIuODZ6Ii8+PHBhdGggZmlsbD0iI2FlY2JmYSIgZD0ibTIuNTEgMTguN2EzLjc3IDMuNzcgMCAwIDEgMS4zOC01LjE2IDMuNzIgMy43MiAwIDAgMSAyLjg2LS4zOCAzLjc4IDMuNzggMCAxIDEgLTQuMjQgNS41NHptNC44NS0yLjgxYTEuNzkgMS43OSAwIDAgMCAtMS4xMS0uODkgMS44MyAxLjgzIDAgMCAwIC0yLjA2IDIuNjkgMS44MyAxLjgzIDAgMSAwIDMuMTctMS44NHoiLz48cGF0aCBmaWxsPSIjYWVjYmZhIiBkPSJtMTQuMzMgMTguMzZhMy43OSAzLjc5IDAgMCAxIDAtMy43NyAzLjc5IDMuNzkgMCAwIDEgNS4xNi0xLjM5IDMuNzggMy43OCAwIDAgMSAxLjM4IDUuMTYgMy43OCAzLjc4IDAgMCAxIC02LjU0IDB6bTQuODYtMi44MWEyIDIgMCAwIDAgLS42Ny0uNjcgMS44NSAxLjg1IDAgMCAwIC0yLjUxLjY4IDEuODYgMS44NiAwIDAgMCAwIDEuODMgMS44MyAxLjgzIDAgMCAwIDIuMDcuODUgMS44MiAxLjgyIDAgMCAwIDEuMTEtLjg1IDEuODggMS44OCAwIDAgMCAwLTEuODR6Ii8+PHBhdGggZmlsbD0iIzY2OWRmNiIgZD0ibTkuNDkgMTYuMTVzLTIuMzQgMi0yLjggMi4yNWwyLjg2LTEuNjVhNC4wNyA0LjA3IDAgMCAwIC0uMDYtLjZ6Ii8+PHBhdGggZmlsbD0iIzY2OWRmNiIgZD0ibTEwLjE1IDEwcy0uNTktMy4yOC0uNTktMy42djMuMjlhMy40NyAzLjQ3IDAgMCAwIC41OS4yN3oiLz48cGF0aCBmaWxsPSIjNjY5ZGY2IiBkPSJtMTUuMyAxMy40N3MyLjc2IDEuMTUgMy4yMiAxLjQxbC0yLjg2LTEuNjRhMS42OSAxLjY5IDAgMCAwIC0uMzYuMjN6Ii8+PC9nPjwvc3ZnPg==;fontStyle=1" vertex="1" parent="1">
          <mxGeometry x="469" y="300" width="52" height="52" as="geometry" />
        </mxCell>
        <mxCell id="yOC-pWLaPlWNzJLVpqbV-32" value="" style="edgeStyle=orthogonalEdgeStyle;rounded=0;orthogonalLoop=1;jettySize=auto;html=1;shape=link;dashed=1;" edge="1" parent="1" source="yOC-pWLaPlWNzJLVpqbV-29" target="yOC-pWLaPlWNzJLVpqbV-28">
          <mxGeometry relative="1" as="geometry">
            <Array as="points">
              <mxPoint x="495" y="290" />
              <mxPoint x="495" y="290" />
            </Array>
          </mxGeometry>
        </mxCell>
        <mxCell id="yOC-pWLaPlWNzJLVpqbV-33" value="&lt;b&gt;Running&lt;br&gt;a Spark job&lt;/b&gt;" style="edgeLabel;align=center;verticalAlign=top;resizable=0;points=[];horizontal=1;labelBackgroundColor=none;labelBorderColor=none;html=1;fontColor=default;" vertex="1" connectable="0" parent="yOC-pWLaPlWNzJLVpqbV-32">
          <mxGeometry x="0.05" y="2" relative="1" as="geometry">
            <mxPoint x="2" y="-2" as="offset" />
          </mxGeometry>
        </mxCell>
        <mxCell id="yOC-pWLaPlWNzJLVpqbV-52" style="edgeStyle=orthogonalEdgeStyle;rounded=0;orthogonalLoop=1;jettySize=auto;html=1;" edge="1" parent="1">
          <mxGeometry relative="1" as="geometry">
            <mxPoint x="560" y="195" as="sourcePoint" />
            <mxPoint x="660" y="195" as="targetPoint" />
          </mxGeometry>
        </mxCell>
        <mxCell id="yOC-pWLaPlWNzJLVpqbV-28" value="" style="shape=image;verticalLabelPosition=bottom;verticalAlign=top;imageAspect=0;aspect=fixed;image=data:image/svg+xml,PHN2ZyB4bWxucz0iaHR0cDovL3d3dy53My5vcmcvMjAwMC9zdmciIHZpZXdCb3g9IjAgMCA0MTcgMjE2IiBoZWlnaHQ9IjIxNiIgd2lkdGg9IjQxNyI+JiN4YTsgIDxtZXRhZGF0YT4mI3hhOyYjeGE7ICAgJiN4YTsgICAgICAmI3hhOyAgICYjeGE7JiN4YTsgICAgICAgICAgICAgICAgICAgICAgICAgICAgICAgICAgICAgICAgICAgICAgICAgICAgICAgICAgICAgICAgICAgICAgICAgICAgICAgICAgICAgICAgICAgICAgICAgICAgJiN4YTsgICAgICAgICAgICAgICAgICAgICAgICAgICAgICAgICAgICAgICAgICAgICAgICAgICAgICAgICAgICAgICAgICAgICAgICAgICAgICAgICAgICAgICAgICAgICAgICAgICAgJiN4YTsgICAgICAgICAgICAgICAgICAgICAgICAgICAgICAgICAgICAgICAgICAgICAgICAgICAgICAgICAgICAgICAgICAgICAgICAgICAgICAgICAgICAgICAgICAgICAgICAgICAgJiN4YTsgICAgICAgICAgICAgICAgICAgICAgICAgICAgICAgICAgICAgICAgICAgICAgICAgICAgICAgICAgICAgICAgICAgICAgICAgICAgICAgICAgICAgICAgICAgICAgICAgICAgJiN4YTsgICAgICAgICAgICAgICAgICAgICAgICAgICAgICAgICAgICAgICAgICAgICAgICAgICAgICAgICAgICAgICAgICAgICAgICAgICAgICAgICAgICAgICAgICAgICAgICAgICAgJiN4YTsgICAgICAgICAgICAgICAgICAgICAgICAgICAgICAgICAgICAgICAgICAgICAgICAgICAgICAgICAgICAgICAgICAgICAgICAgICAgICAgICAgICAgICAgICAgICAgICAgICAgJiN4YTsgICAgICAgICAgICAgICAgICAgICAgICAgICAgICAgICAgICAgICAgICAgICAgICAgICAgICAgICAgICAgICAgICAgICAgICAgICAgICAgICAgICAgICAgICAgICAgICAgICAgJiN4YTsgICAgICAgICAgICAgICAgICAgICAgICAgICAgICAgICAgICAgICAgICAgICAgICAgICAgICAgICAgICAgICAgICAgICAgICAgICAgICAgICAgICAgICAgICAgICAgICAgICAgJiN4YTsgICAgICAgICAgICAgICAgICAgICAgICAgICAgICAgICAgICAgICAgICAgICAgICAgICAgICAgICAgICAgICAgICAgICAgICAgICAgICAgICAgICAgICAgICAgICAgICAgICAgJiN4YTsgICAgICAgICAgICAgICAgICAgICAgICAgICAgICAgICAgICAgICAgICAgICAgICAgICAgICAgICAgICAgICAgICAgICAgICAgICAgICAgICAgICAgICAgICAgICAgICAgICAgJiN4YTsgICAgICAgICAgICAgICAgICAgICAgICAgICAgICAgICAgICAgICAgICAgICAgICAgICAgICAgICAgICAgICAgICAgICAgICAgICAgICAgICAgICAgICAgICAgICAgICAgICAgJiN4YTsgICAgICAgICAgICAgICAgICAgICAgICAgICAgICAgICAgICAgICAgICAgICAgICAgICAgICAgICAgICAgICAgICAgICAgICAgICAgICAgICAgICAgICAgICAgICAgICAgICAgJiN4YTsgICAgICAgICAgICAgICAgICAgICAgICAgICAgICAgICAgICAgICAgICAgICAgICAgICAgICAgICAgICAgICAgICAgICAgICAgICAgICAgICAgICAgICAgICAgICAgICAgICAgJiN4YTsgICAgICAgICAgICAgICAgICAgICAgICAgICAgICAgICAgICAgICAgICAgICAgICAgICAgICAgICAgICAgICAgICAgICAgICAgICAgICAgICAgICAgICAgICAgICAgICAgICAgJiN4YTsgICAgICAgICAgICAgICAgICAgICAgICAgICAgICAgICAgICAgICAgICAgICAgICAgICAgICAgICAgICAgICAgICAgICAgICAgICAgICAgICAgICAgICAgICAgICAgICAgICAgJiN4YTsgICAgICAgICAgICAgICAgICAgICAgICAgICAgICAgICAgICAgICAgICAgICAgICAgICAgICAgICAgICAgICAgICAgICAgICAgICAgICAgICAgICAgICAgICAgICAgICAgICAgJiN4YTsgICAgICAgICAgICAgICAgICAgICAgICAgICAgICAgICAgICAgICAgICAgICAgICAgICAgICAgICAgICAgICAgICAgICAgICAgICAgICAgICAgICAgICAgICAgICAgICAgICAgJiN4YTsgICAgICAgICAgICAgICAgICAgICAgICAgICAgICAgICAgICAgICAgICAgICAgICAgICAgICAgICAgICAgICAgICAgICAgICAgICAgICAgICAgICAgICAgICAgICAgICAgICAgJiN4YTsgICAgICAgICAgICAgICAgICAgICAgICAgICAgICAgICAgICAgICAgICAgICAgICAgICAgICAgICAgICAgICAgICAgICAgICAgICAgICAgICAgICAgICAgICAgICAgICAgICAgJiN4YTsgICAgICAgICAgICAgICAgICAgICAgICAgICAgICAgICAgICAgICAgICAgICAgICAgICAgICAgICAgICAgICAgICAgICAgICAgICAgICAgICAgICAgICAgICAgICAgICAgICAgJiN4YTsgICAgICAgICAgICAgICAgICAgICAgICAgICAmI3hhOzwvbWV0YWRhdGE+JiN4YTs8ZGVmcz4mI3hhOyAgICA8c3R5bGU+JiN4YTsgICAgICAuY2xzLTEgeyYjeGE7ICAgICAgICBmaWxsLXJ1bGU6IGV2ZW5vZGQ7JiN4YTsgICAgICB9JiN4YTsgICAgPC9zdHlsZT4mI3hhOyAgPC9kZWZzPiYjeGE7ICA8cGF0aCB0cmFuc2Zvcm09InRyYW5zbGF0ZSgtMjEgLTEyMikiIGQ9Ik00MDMuNTUzLDIzMS41NTRjLTguNTU5LTIuMjg4LTE4LjQ2LTQuOTQ1LTI3Ljg3OC03LjQ2MywxLjA4Niw2LjI5MSwyLjEwOSwxMS43OCwzLjA1NywxNy4yNyw5LjU5MSwyLjg1NiwxNy44LDUuODMxLDI3LjIsOC41MTEsNS40MDUsMS41NCwxMS44LjY3OSwxNS40MTEtMy42MTksMy42NDUtNC4zMzksMy4wMTMtMTAuMDA2LjY4LTE0LjctMy42MjEtNy4yODQtMTUuMjU1LTI5LjEtMTcuMzM4LTMzLjAxOCw5LjEyLTEwLjY4OSwyNS43MjQtMzAuMywzMS4wNTEtMzYuNjM2czEuMjQ2LTE3Ljg2Ni0xMi42OTMtMTMuOGMtMTAuMTMxLDIuOTU5LTM3LjQ3NCwxMC4xNjYtNDAuOTk1LDExLTIuMjI5LTMuNjI3LTE0LjM3My0yNC44NS0xOC44MzktMzEuNDYzLTUuOTUtOC44MS0xNy45LTcuNTc2LTIxLjg3Miw1LjY1My0xLjAyLDMuMzkyLTUuMTM2LDI4LjYtNy4xMzksMzkuNjg5LTIuMjcxLjc4NC0yOC40LDguNTY3LTM5LjU1LDEyLjMyNS00LjcyNywxLjU5NC05LjMyMyw1LjQ1OC0xMC4yLDEwLjg1Ni0wLjg4OSw1LjQ3OCwyLjk0LDkuOTg2LDcuMjUzLDEyLjMyNSw5LjI5Miw0LjMsMTcuOTc3LDguMjQsMjYuODU3LDEyLjQzOCw2LjI0Ny00LjA1OSwxMi42NTgtNy45OTMsMTkuMTUyLTEyLjIxMi0xMC4wMDYtMy45OTMtMzAuMDY2LTExLjc1NS0zMC4wMzEtMTIuMzI1LDEyLjY0OC00LjA3MiwyNy4xMjMtOC44MTcsMzkuNzc3LTEyLjg5MSwyLjQtMTMuMDM2LDYuNDczLTM4LjkyOSw3LjAyNi0zOS4wMSw2LjIxNCwxMC4xNjYsMTMuMjUxLDIxLjU2NCwxOS40OTEsMzEuNzczbDM5LjU1LTEwLjI4OWMtOC42NzcsMTAuMjg2LTE3LjgsMjEuOTU1LTI2LjYzOSwzMi40MzJabS0yOTUuNzIsNzcuOTc1Yy0xLjMsOS41MDgtMi41NzgsMTguODcxLTMuODg5LDI4LjQ3Mkg4Ny4xNzdjMS42MzgtMTIuNjQ5LDMuMi0yNS4xMzcsNC44ODYtMzcuNjA5LDEuMzA3LTkuNjg2LDIuMi0xOS40NzQsNC4yNjYtMjksNC4xMTEtMTguOTEyLDIxLjcxMS0zMy45Miw0MC45LTM1LjcyMiwyNC4wMzgtMi4yNTcsNDEuODA4LDE2LjQsMzguNjM5LDQwLjU2OS0zLjM4OCwyNS44NC0zMC41NDgsNDQuOTI2LTU1LjE2MSwzOC41NDJDMTE2LjQxLDMxMy42NjcsMTEyLjQwOCwzMTEuNDI5LDEwNy44MzMsMzA5LjUyOVptNTAuOTc3LTM2LjY2N2ExOS43MDgsMTkuNzA4LDAsMCwwLTE5Ljg4NS0yMC4xNTZjLTEzLjc0Ny0uMi0yNi41ODEsMTIuNC0yNi41NjEsMjYuMDg1LDAuMDE3LDExLjQ3Nyw4Ljg1NCwyMC4xNDQsMjAuNDczLDIwLjA3OUMxNDYuNjYsMjk4Ljc5MywxNTguODIzLDI4Ni42MTMsMTU4LjgxLDI3Mi44NjJaTTk4Ljg0NiwyMjQuMzg3TDgyLjQ3MywyMzYuNTQ1Yy0yLjI5LTIuNjQ5LTQuMTEyLTUuMjkyLTYuNDUzLTcuMzQ3LTQuMTkyLTMuNjgtOC4zMTUtNC4xNDQtMTMuMTU0LTEuMzM4LTQuODE2LDIuNzkzLTYuNjc3LDcuNjQ2LTMuMSwxMS45MjcsNS4xMDksNi4xMiwxMC41NjEsMTEuOTc4LDE2LjE0MiwxNy42NzksMTMuOCwxNC4wOTQsMTYuMDYsMjcuNDA3LDYuODEyLDQxLjY3Ny05LjQ4MSwxNC42MjgtMjguOTI1LDIxLjQ3Ni00NC44NTIsMTUuNy05LjM4NS0zLjQwNi0xMy45ODUtMTAuOS0xNi44NjUtMjAuMzEzbDE4LjAzNi05LjY3NGMxLjMzNiwyLjUsMi4zNjcsNC44LDMuNzI5LDYuODk0LDQuOCw3LjM4LDEzLjY1OSw4LjcyNiwyMC44NTYsMy4yNzQsNi4yNjItNC43NDMsNi40NzgtMTEuMzIxLjI3OS0xOC4zMTktNS41OTItNi4zMTMtMTEuOC0xMi4xLTE3LjEyNC0xOC42MjZDMjkuMDIsMjM4LjksNDIuMDUyLDIxMy41NzUsNjUuNiwyMDguNDY0LDgwLjE0OSwyMDUuNzI1LDkwLjY5MSwyMTAuNjY3LDk4Ljg0NiwyMjQuMzg3Wm0xNjAuNjI2LDg5LjQ5MkgyNDIuNDM0YzEuMzA4LTEwLjEyNywyLjY0Ni0xOS45MzMsMy44MDUtMjkuNzU5YTY2Ljg1Niw2Ni44NTYsMCwwLDAsLjU1OC0xMC44Yy0wLjc2LTE2Ljg3OS0xNC4yMjEtMjUuMDg2LTI5Ljg0Ny0xOC4zMjctMTUuMjkxLDYuNjE1LTIxLjMyLDI1LjgtMTEuNiwzNi45LDYuNTMzLDcuNDYyLDE3LjMsOS4xODEsMjYuODg3LDQuMTU5LDIuMzcxLTEuMjQxLDQuNTI3LTIuODkxLDcuNDMyLTQuNzc0LTAuODU1LDYuOTA3LTEuNjUyLDEzLjM1NC0yLjQ0NCwxOS43NTMtMjAuNzcyLDEyLjExLTQ3LjUxNi44LTUyLjU2Ny0xOS45MzEtNC4zMjItMTYuMzgxLjk4NS0zMC40MjgsMTIuNzU3LTQxLjkyMywxMS43NDgtMTEuNDczLDI1Ljg3Ny0xNi41MzEsNDIuMjU5LTEyLjA5MywxNS4xMTQsNC4wOTQsMjUuNSwxNy4yMzEsMjQuNywzMi43NTRDMjYzLjYyNywyODQuNSwyNjEuMTg5LDI5OS4wNzksMjU5LjQ3MiwzMTMuODc5Wk0zODYuNCwzMTQuMDE2SDM2My42NDJsLTI4LjA3OS00Mi4zNjdjLTIsMTQuNzY5LTMuODUzLDI4LjQzLTUuNzE5LDQyLjIwNkgzMTFjMy45NjctMzAuMTUyLDcuODg4LTU5Ljk0NCwxMS44LTg5LjcwN2wyMC42MjMtMTMuMjg2Yy0xLjk4NiwxNS4zNTgtMy44NzUsMjkuOTctNS45OSw0Ni4zMjRsMzEuODM2LTM1LjAzM2MxLjE2Myw2LjYxNywyLjE2NiwxMi4zMjYsMy4yMjEsMTguMzI5bC0yMi4wMDksMjMuMTlDMzYyLjMwOSwyODAuMjQ3LDM3NC4wNzQsMjk2Ljc0MywzODYuNCwzMTQuMDE2Wk0yODUuMywzMTMuODU0SDI2Ny45ODljMS44NTEtMTQuMjQsMy42NjUtMjguMiw1LjQ4LTQyLjE1OSwwLjU4Mi00LjQ3MS45NTItOC45ODIsMS43OTMtMTMuNCwyLjQwNi0xMi42NTUsMTIuMzU4LTIwLjgsMjUuMTkxLTIwLjgzNSwzLjYtLjAxLDcuMTkyLDAsMTEuNTYzLDAtMC4zODcsMy4xODQtLjcxNSw1LjkyNy0xLjA1NSw4LjY3LTAuMzUxLDIuODI4LS43MTIsNS42NTYtMS4xMzMsOC45OTQtMy4yNTksMC02LjM5MS4xLTkuNTE0LS4wMjMtNS4wNjctLjItNy40NTksMi41MTctOC4wOCw3LjE3OXEtMi45NzQsMjIuMzQ3LTUuODkxLDQ0LjdDMjg2LjA1MSwzMDkuMTksMjg1LjY3NywzMTEuMzksMjg1LjMsMzEzLjg1NFoiIGNsYXNzPSJjbHMtMSIvPiYjeGE7PC9zdmc+;imageBackground=none;" vertex="1" parent="1">
          <mxGeometry x="440" y="166.51999999999998" width="110" height="56.98" as="geometry" />
        </mxCell>
        <mxCell id="yOC-pWLaPlWNzJLVpqbV-53" value="Visualization" style="rounded=1;whiteSpace=wrap;html=1;dashed=1;fillColor=#f8cecc;strokeColor=#b85450;arcSize=2;verticalAlign=top;align=center;fontStyle=1;fontSize=14;dashPattern=1 4;" vertex="1" parent="1">
          <mxGeometry x="850" y="90" width="140" height="360" as="geometry" />
        </mxCell>
        <mxCell id="yOC-pWLaPlWNzJLVpqbV-55" value="Looker" style="shape=image;verticalLabelPosition=bottom;verticalAlign=top;imageAspect=0;aspect=fixed;image=data:image/svg+xml,PHN2ZyB4bWxuczp4bGluaz0iaHR0cDovL3d3dy53My5vcmcvMTk5OS94bGluayIgeG1sbnM9Imh0dHA6Ly93d3cudzMub3JnLzIwMDAvc3ZnIiBwcmVzZXJ2ZUFzcGVjdFJhdGlvPSJ4TWlkWU1pZCIgdmVyc2lvbj0iMS4xIiB2aWV3Qm94PSIyLjA1MTY1NzkwMTM0NzQyNTZlLTcgLTAuMDAwMDMyMTE5NjYwMzE4MTMwNjMgMjU1Ljk5NTE0NzcwNTA3ODEyIDQxMi43MjgzNjMwMzcxMDk0IiBoZWlnaHQ9IjQxMi43MjgzNjMwMzcxMDk0IiB3aWR0aD0iMjU1Ljk5NTE0NzcwNTA3ODEyIj4mI3hhOyAgICA8Zz4mI3hhOyAgICAgICAgPHBhdGggZmlsbD0iIzM0QTg1MyIgZD0iTTEyNy4xMjg0ODYsMCBDMTEzLjc5Nzc4MiwwLjAwNTg0NzE3MjYgMTAxLjU1NjAwNCw3LjM2MDA2MzgxIDk1LjI5MDUyNTMsMTkuMTI2NjA1IEM4OS4wMjUwNDY5LDMwLjg5MzE0NjEgODkuNzU2NDUzMiw0NS4xNTUzNTc4IDk3LjE5MjczOTYsNTYuMjE5MjMzOSBMMTEyLjYwNjI3OSw0MC44Mjc0MzM5IEMxMTIuMDk2ODQ1LDM5LjI5MjAxNzYgMTExLjgzOTg3NiwzNy42ODQxMjQyIDExMS44NDUzODUsMzYuMDY2NDExIEMxMTEuODQ1Mzg1LDI3LjY2MTgwNzIgMTE4LjY1ODY2MywyMC44NDg1Mjk3IDEyNy4wNjMyNjcsMjAuODQ4NTI5NyBDMTM1LjQ2Nzg3MSwyMC44NDg1Mjk3IDE0Mi4yODExNDgsMjcuNjYxODA3MiAxNDIuMjgxMTQ4LDM2LjA2NjQxMSBDMTQyLjI4MTE0OCw0NC40NzEwMTQ4IDEzNS40Njc4NzEsNTEuMjg0MjkyNCAxMjcuMDYzMjY3LDUxLjI4NDI5MjQgQzEyNS40NTI4MTQsNTEuMjg3ODM2MiAxMjMuODUyMzg5LDUxLjAzMDg4NzIgMTIyLjMyMzk4NCw1MC41MjMzOTgzIEwxMDYuOTMyMTg0LDY1LjkxNTE5ODMgQzExOS43NDk4MTcsNzQuNjA4NDczOCAxMzYuNjg2NjA1LDc0LjE0Nzk0OTkgMTQ5LjAxMjg5NSw2NC43NzA5OTI0IEMxNjEuMzM5MTg1LDU1LjM5NDAzNDkgMTY2LjMwMjc0NCwzOS4xOTQzNDUyIDE2MS4zNDUyMjcsMjQuNTIxNjU2OCBDMTU2LjM4NzcxMSw5Ljg0ODk2ODI3IDE0Mi42MTYwNCwtMC4wMjA1Nzg2NTY5IDEyNy4xMjg0ODYsMCBMMTI3LjEyODQ4NiwwIFoiLz4mI3hhOyAgICAgICAgPHBhdGggZmlsbD0iI0ZCQkMwNCIgZD0iTTExMi43ODAzMDMsMTA1LjExMjExMyBDMTEyLjgwMzc5NCw5Mi45Mjg4MjAxIDEwOC44NTgyNzgsODEuMDY5Mzc2OCAxMDEuNTQwNzA2LDcxLjMyODQxNjEgTDgxLjU0MDA2MTcsOTEuMzA3MzIwNCBDODcuNzk0OTc5NiwxMDIuNzQ3NzM3IDg1LjU0NDA2NDUsMTE2Ljk2NzgwNCA3Ni4wNjE2MjQ0LDEyNS45MTcxMzEgTDg2LjkzMTUzOTYsMTUyLjQ4MzIwMyBDMTAzLjAzNzExMywxNDIuMTEwNjYxIDExMi43NzI3NTMsMTI0LjI2ODgxMSAxMTIuNzgwMzAzLDEwNS4xMTIxMTMgWiIvPiYjeGE7ICAgICAgICA8cGF0aCBmaWxsPSIjRUE0MzM1IiBkPSJNNTYuODg3MDkzOSwxMzMuNzg2OTQ5IEw1Ni4zNjUzMzc5LDEzMy43ODY5NDkgQzQ0LjA5NzU0MDcsMTMzLjc4ODAxMyAzMy4xODU4NDY2LDEyNS45OTA1ODUgMjkuMjEyODQwNSwxMTQuMzgzOTQ2IEMyNS4yMzk4MzQ0LDEwMi43NzczMDcgMjkuMDg0MzE5OSw4OS45Mjg3NzEyIDM4Ljc3OTQwMTMsODIuNDExODQwNCBDNDguNDc0NDgyNiw3NC44OTQ5MDk2IDYxLjg3NTY2OTIsNzQuMzcyMjgxMyA3Mi4xMjY3MTUsODEuMTExMzM5OCBMOTEuOTMxNzAwNiw2MS4zMDYzNTQzIEM3Mi42NzM3MjA3LDQ1LjY5MzY2NTQgNDUuNDc3ODI0Myw0NC40ODkzMTI0IDI0LjkxNTE0MDksNTguMzM4NTY4NCBDNC4zNTI0NTc0MSw3Mi4xODc4MjQ1IC00Ljc1Mzc0MjQ0LDk3Ljg0MjE0OTIgMi40NzU0OTg1OSwxMjEuNTU2MzYzIEM5LjcwNDczOTYyLDE0NS4yNzA1NzYgMzEuNTczNywxNjEuNDgyMTcxIDU2LjM2NTMzNzksMTYxLjUwNTI0IEM2MC4xOTA2NTQ4LDE2MS41MDcxMTUgNjQuMDA2NjcwMiwxNjEuMTI4NDI3IDY3Ljc1NzAwOTEsMTYwLjM3NDc2MiBMNTYuODg3MDkzOSwxMzMuNzg2OTQ5IFoiLz4mI3hhOyAgICAgICAgPHBhdGggZmlsbD0iIzQyODVGNCIgZD0iTTEyNy44ODkzOCwxNTYuNzY1OTUgQzExNS4zNzE3MDYsMTU2Ljc1MzI2OSAxMDIuOTE5ODg3LDE1OC41NzcwOTUgOTAuOTMxNjY4NCwxNjIuMTc5MTY4IEwxMDYuNzgwMDA1LDIwMC44OTc4MDYgQzExMy42Nzg3MTUsMTk5LjE4ODE5MiAxMjAuNzYwMjU0LDE5OC4zMjY3MjYgMTI3Ljg2NzY0LDE5OC4zMzI1MDYgQzE2OS4wNTA3ODQsMTk4LjM0NDUxMyAyMDQuNDkxMDM0LDIyNy40NDQ5MTcgMjEyLjUxNjM1MSwyNjcuODM4NTUyIEMyMjAuNTQxNjY4LDMwOC4yMzIxODcgMTk4LjkxNzEzNCwzNDguNjcwMDk1IDE2MC44NjYzNTEsMzY0LjQyNDEyMSBDMTIyLjgxNTU2OCwzODAuMTc4MTQ4IDc4LjkzNTA0ODcsMzY2Ljg2MTA1OCA1Ni4wNTgxMzU5LDMzMi42MTYzNzUgQzMzLjE4MTIyMzIsMjk4LjM3MTY5MiAzNy42Nzg3NTgxLDI1Mi43MzU5OTMgNjYuODAwNDU2NiwyMjMuNjE1OTI5IEM3Mi44NzcxMTExLDIxNy41NTgyNjQgNzkuODE0MzY1NSwyMTIuNDMwNDA5IDg3LjM4ODA3NjEsMjA4LjM5ODA0NyBMNzEuNzEzNjU4MywxNjkuNzg4MTA4IEMxMy4yODY1NzQ1LDE5OC40MDI1MjMgLTE0LjM3NjcyNDcsMjY2LjI5NzEwNyA3LjQxNTQ2MTA2LDMyNy41OTY0NSBDMjkuMjA3NjQ2OCwzODguODk1NzkzIDkzLjUyMDM1NDEsNDI0LjA5MjUwMyAxNTYuODk4Mzk1LDQwOS40MDQ2NjEgQzIyMC4yNzY0MzYsMzk0LjcxNjgxOCAyNjIuNTUwOTEyLDMzNC44MTg1NTkgMjU1LjE1NzU1NywyNzAuMTgyMjkxIEMyNDcuNzY0MjAxLDIwNS41NDYwMjQgMTkzLjA1NTgxNCwxNTYuNzQxMDU0IDEyNy45OTgwNzksMTU2Ljc0NDIxIEwxMjcuODg5MzgsMTU2Ljc2NTk1IFoiLz4mI3hhOyAgICA8L2c+JiN4YTs8L3N2Zz4=;fontStyle=1" vertex="1" parent="1">
          <mxGeometry x="885.44" y="150" width="69.11" height="111.5" as="geometry" />
        </mxCell>
        <mxCell id="yOC-pWLaPlWNzJLVpqbV-58" style="edgeStyle=orthogonalEdgeStyle;rounded=0;orthogonalLoop=1;jettySize=auto;html=1;exitX=1.007;exitY=0.18;exitDx=0;exitDy=0;exitPerimeter=0;" edge="1" parent="1" source="yOC-pWLaPlWNzJLVpqbV-43">
          <mxGeometry relative="1" as="geometry">
            <mxPoint x="880" y="195" as="targetPoint" />
          </mxGeometry>
        </mxCell>
        <mxCell id="yOC-pWLaPlWNzJLVpqbV-59" value="Orchestration" style="rounded=1;whiteSpace=wrap;html=1;dashed=1;fillColor=#E1F5E0;strokeColor=#82b366;arcSize=2;verticalAlign=top;align=center;fontStyle=1;fontSize=14;" vertex="1" parent="1">
          <mxGeometry x="50" y="460" width="940" height="110" as="geometry" />
        </mxCell>
        <mxCell id="yOC-pWLaPlWNzJLVpqbV-60" value="Prefect" style="shape=image;verticalLabelPosition=bottom;verticalAlign=top;imageAspect=0;aspect=fixed;image=data:image/svg+xml,PHN2ZyB4bWxucz0iaHR0cDovL3d3dy53My5vcmcvMjAwMC9zdmciIGhlaWdodD0iMjUwMCIgd2lkdGg9IjE1NDQiIHZpZXdCb3g9Ii0wLjA2MDAwMDAwMDAwMDAyMDY1IC0wLjI2IDM3Mi45NCA2MDMuNjgwMDAwMDAwMDAwMSI+PGxpbmVhckdyYWRpZW50IHkyPSIyMzYuMjA5IiB5MT0iMzcyLjU0MyIgeDI9IjE5MC40NTYiIHgxPSIzMjEuMDM4IiBncmFkaWVudFVuaXRzPSJ1c2VyU3BhY2VPblVzZSIgaWQ9ImEiPjxzdG9wIHN0b3AtY29sb3I9IiNiNGMwYzkiIG9mZnNldD0iMCIvPjxzdG9wIHN0b3AtY29sb3I9IiM5NGE1YjIiIG9mZnNldD0iMSIvPjwvbGluZWFyR3JhZGllbnQ+PGxpbmVhckdyYWRpZW50IHkyPSI2MjIuOTA0IiB5MT0iMjY2LjczNCIgeDI9IjIxNi4yNTYiIHgxPSIxOC45MjkiIGdyYWRpZW50VW5pdHM9InVzZXJTcGFjZU9uVXNlIiBpZD0iYiI+PHN0b3Agc3RvcC1jb2xvcj0iIzY0Nzk4OSIgb2Zmc2V0PSIwIi8+PHN0b3Agc3RvcC1jb2xvcj0iIzJmMzgzZSIgb2Zmc2V0PSIxIi8+PC9saW5lYXJHcmFkaWVudD48bGluZWFyR3JhZGllbnQgeTI9IjIzNi45ODMiIHkxPSIzNi40NjYiIHgyPSIzMzYuMDQzIiB4MT0iMTI1LjgiIGdyYWRpZW50VW5pdHM9InVzZXJTcGFjZU9uVXNlIiBpZD0iYyI+PHN0b3Agc3RvcC1jb2xvcj0iIzJlZGFmZiIgb2Zmc2V0PSIwIi8+PHN0b3Agc3RvcC1jb2xvcj0iIzAwNGJmZiIgb2Zmc2V0PSIxIi8+PC9saW5lYXJHcmFkaWVudD48cGF0aCBmaWxsPSJ1cmwoI2EpIiBkPSJNMzcyLjg4IDI3OS41NmwtMTg2LjU1LTkzLjV2MTkwLjA2eiIvPjxwYXRoIG9wYWNpdHk9Ii4yIiBmaWxsPSIjMGQzOTU4IiBkPSJNMjEwLjA5IDM2My44MWwtMjMuNzYtMTQxLjI5djE1My42ek0zNDguOTcgMjY3LjQ4bC0xNjIuNjQtODEuNDJ2MjAuNzN6Ii8+PHBhdGggZmlsbD0idXJsKCNiKSIgZD0iTTExLjIzIDU5Ny45N2MuMzktLjIzIDE3MS4zNi04My4xNCAxNzEuNTEtODMuMjMgMi4zNC0xLjQ0IDMuNjYtMS43OSAzLjc0LTUuOTFsLS4wOC0zMjIuNzdjLTcyLjQzIDM2LjIzLTE3NC4zOSA4Ny4xMi0xODMuMTkgOTEuOC0yLjgxIDEuNTYtMy4yIDIuODktMy4yIDQuOTF2MzA2Ljg3Yy0uMDcgNi45My4zOSAxMy43OCAxMS4yMiA4LjMzeiIvPjxwYXRoIGZpbGw9InVybCgjYykiIGQ9Ik0zNzIuODggOTYuNjh2MTgyLjgxUzI0Ljg1IDEwNS4zMiAxMi44MSA5OS4wOWMtOC4wMy00LjItOC4wMy04LjE5IDAtMTIuNjlDMjAuMiA4Mi4yNiAxNjEuNDIgMTEuODIgMTgzLjA3Ljk4YzIuOC0xLjI0IDMuNjctMS4yNCA2LjE1LS4yM2wxODAuMTcgOTAuMzFjMi41NyAxLjI2IDMuMzUgMi41IDMuNDkgNS42MnoiLz48L3N2Zz4=;fontStyle=1" vertex="1" parent="1">
          <mxGeometry x="504.57" y="490" width="30.87" height="50" as="geometry" />
        </mxCell>
        <mxCell id="yOC-pWLaPlWNzJLVpqbV-61" value="Infrastructure" style="rounded=1;whiteSpace=wrap;html=1;dashed=1;fillColor=#D1C6D6;strokeColor=#9673a6;arcSize=2;verticalAlign=top;align=center;fontStyle=1;fontSize=14;" vertex="1" parent="1">
          <mxGeometry x="50" y="580" width="940" height="110" as="geometry" />
        </mxCell>
        <mxCell id="yOC-pWLaPlWNzJLVpqbV-62" value="" style="shape=image;verticalLabelPosition=bottom;verticalAlign=top;imageAspect=0;aspect=fixed;image=data:image/svg+xml,PHN2ZyB4bWxuczp4bGluaz0iaHR0cDovL3d3dy53My5vcmcvMTk5OS94bGluayIgeG1sbnM9Imh0dHA6Ly93d3cudzMub3JnLzIwMDAvc3ZnIiB2ZXJzaW9uPSIxLjEiIHZpZXdCb3g9IjAgMCAyNTYgMjE1IiBoZWlnaHQ9IjIxNXB4IiB3aWR0aD0iMjU2cHgiPiYjeGE7ICAgIDxnIGZpbGwtcnVsZT0iZXZlbm9kZCIgZmlsbD0ibm9uZSIgc3Ryb2tlLXdpZHRoPSIxIiBzdHJva2U9Im5vbmUiPiYjeGE7ICAgICAgICA8cGF0aCBmaWxsPSIjMzY0NTQ4IiBkPSJNMzguNjE2OTAzOCwxNzMuOTg0MTM0IEwzOC42MTY5MDM4LDE1Ny42MjE1NTYgQzM4LjYxNjkwMzgsMTU1LjQ3Mjg3IDM5Ljk2MTE3MTUsMTUzLjc0NDYwMyA0Mi4xODY0NDM1LDE1My43NDQ2MDMgTDQyLjgwMzQxNDIsMTUzLjc0NDYwMyBDNDUuMDI4MTUwNiwxNTMuNzQ0NjAzIDQ2LjM2NTk5MTYsMTU1LjQ3Mzk0MSA0Ni4zNjU5OTE2LDE1Ny42MjE1NTYgTDQ2LjM2NTk5MTYsMTkyLjA2OTA4OCBDNDYuMzY1OTkxNiwyMDAuNDY5NDIzIDQyLjIxNTM2NCwyMDcuMTUyNzM2IDM0Ljk4NDE2NzQsMjExLjQxMTAxMyBDMzEuNjMwOTk1OCwyMTMuMzg0MDMzIDI3LjkyNTk1ODIsMjE0LjM5NjI1MSAyNC4wMzg4Mjg1LDIxNC4zOTYyNTEgTDIyLjUwMjI5MjksMjE0LjM5NjI1MSBDMTQuMTAwMzUxNSwyMTQuMzk2MjUxIDcuNDI0NTM1NTYsMjEwLjI0Mjk0NiAzLjE1OTgzMjY0LDIwMy4wMTU0OTggQzEuMTgwOTIwNSwxOTkuNjYwMTg0IDAuMTc1NjY1MjcyLDE5NS45NjA1MDIgMC4xNzU2NjUyNzIsMTkyLjA2OTA4OCBMMC4xNzU2NjUyNzIsMTkwLjUzMzYyMyBDMC4xNzU2NjUyNzIsMTgyLjEzMDYxMSA0LjMyODQzNTE1LDE3NS40NTEwNDYgMTEuNTU0Mjc2MiwxNzEuMTg1MjcyIEMxNC45MTAxMjU1LDE2OS4yMDQyMTggMTguNjA5ODA3NSwxNjguMjAwMDMzIDIyLjUwMjI5MjksMTY4LjIwMDAzMyBMMjQuMDM4ODI4NSwxNjguMjAwMDMzIEMyOS43MjQ5MjA1LDE2OC4yMDAwMzMgMzQuNTQ5Mjg4NywxNzAuNDAzODgzIDM4LjYxNjkwMzgsMTczLjk4NDEzNCBMMzguNjE2OTAzOCwxNzMuOTg0MTM0IFogTTcuOTIzNjgyMDEsMTkxLjMwMDAxNyBDNy45MjM2ODIwMSwxOTcuMzY3OTY3IDEwLjg2NTAwNDIsMjAxLjkyOTkwOCAxNi4xODIwOTIxLDIwNC44MzkwOTYgQzE4LjMzMTg0OTQsMjA2LjAxNTczMiAyMC42NjYzNzY2LDIwNi42NDc2OTkgMjMuMTE5MjYzNiwyMDYuNjQ3Njk5IEMyOS4wNzUyODAzLDIwNi42NDc2OTkgMzMuNDkyNjE5MiwyMDMuODM4MTI2IDM2LjUzOTk4MzMsMTk4Ljc5MDk2MiBDMzcuOTU3MDg3OSwxOTYuNDQyNTEgMzguNjE2OTAzOCwxOTMuODc0NDc3IDM4LjYxNjkwMzgsMTkxLjE0MzA5NiBDMzguNjE2OTAzOCwxODUuODgyNzc4IDM2LjEyNjUyNzIsMTgxLjc3ODIwOSAzMS44ODgwNjY5LDE3OC43MjkyMzggQzI5LjMxNzg5MTIsMTc2Ljg4MTAwNCAyNi40MjQ3Njk5LDE3NS45NTM5NDEgMjMuMjY5NzU3MywxNzUuOTUzOTQxIEMxNi43NzgxNzU3LDE3NS45NTM5NDEgMTIuMTA2NDQzNSwxNzkuMjMzMjA1IDkuMzAyMjI1OTQsMTg1LjA1OTYxNSBDOC4zNTU4ODI4NSwxODcuMDI5NDIzIDcuOTIzNjgyMDEsMTg5LjEyMTMzOSA3LjkyMzY4MjAxLDE5MS4zMDAwMTcgTDcuOTIzNjgyMDEsMTkxLjMwMDAxNyBaIE03My4yNDgxMzM5LDE2OC4yMDAwMzMgTDc0LjMyMTk0MTQsMTY4LjIwMDAzMyBDODMuMzAwMTUwNiwxNjguMjAwMDMzIDkwLjEyNzUzMTQsMTcyLjU1NTI0NyA5NC40NTQ4OTU0LDE4MC4zOTIxNjcgQzk2LjE4NTMwNTQsMTgzLjUyNzM2NCA5Ny4xMTA3NjE1LDE4Ni45NDg1NTIgOTcuMTEwNzYxNSwxOTAuNTMzNjIzIEw5Ny4xMTA3NjE1LDE5Mi4wNjkwODggQzk3LjExMDc2MTUsMjAwLjQ2ODg4NyA5Mi45Njg3MDI5LDIwNy4xNjIzNzcgODUuNzI1NzIzOCwyMTEuNDEyMDg0IEM4Mi4zNzI1NTIzLDIxMy4zNzg2NzggNzguNjY4NTg1OCwyMTQuMzk2MjUxIDc0Ljc4MjUyNzIsMjE0LjM5NjI1MSBMNzMuMjQ4MTMzOSwyMTQuMzk2MjUxIEM2NC44NDYxOTI1LDIxNC4zOTYyNTEgNTguMTY5MzA1NCwyMTAuMjQyOTQ2IDUzLjkwNTY3MzYsMjAzLjAxNTQ5OCBDNTEuOTI2NzYxNSwxOTkuNjYwMTg0IDUwLjkxOTM2NCwxOTUuOTYwNTAyIDUwLjkxOTM2NCwxOTIuMDY5MDg4IEw1MC45MTkzNjQsMTkwLjUzMzYyMyBDNTAuOTE5MzY0LDE4Mi4xMjk1NCA1NS4wODc2NjUzLDE3NS40NzE5MzMgNjIuMjk1ODMyNiwxNzEuMTg3NDE0IEM2NS42NDczOTc1LDE2OS4xOTU2NDkgNjkuMzUzNTA2MywxNjguMjAwMDMzIDczLjI0ODEzMzksMTY4LjIwMDAzMyBMNzMuMjQ4MTMzOSwxNjguMjAwMDMzIFogTTU4LjY2NzM4MDgsMTkxLjMwMDAxNyBDNTguNjY3MzgwOCwxOTcuMTkwMTU5IDYxLjU1ODM1OTgsMjAxLjUyMjg3OSA2Ni41MzMyMjE4LDIwNC41NjkxNzIgQzY4Ljg2OTM1NTYsMjA2LjAwMDIwMSA3MS40NDE2NzM2LDIwNi42NDc2OTkgNzQuMTcxNDQ3NywyMDYuNjQ3Njk5IEM3OS45OTE0MzEsMjA2LjY0NzY5OSA4NC4yOTMwODc5LDIwMy42OTY3MzYgODcuMjg3NDMxLDE5OC43ODQ1MzYgQzg4LjcxNTI0NjksMTk2LjQ0MjUxIDg5LjM2MTEzODEsMTkzLjg3MDE5MiA4OS4zNjExMzgxLDE5MS4xNDMwOTYgQzg5LjM2MTEzODEsMTg1LjY2NjQxIDg2LjcyMjk0NTYsMTgxLjQ4MjA0MiA4Mi4yMTM0ODk1LDE3OC40NDk2NzQgQzc5Ljc0MTg1NzcsMTc2Ljc4Njc0NSA3Ni45OTA2NjExLDE3NS45NTM5NDEgNzQuMDE0NTI3MiwxNzUuOTUzOTQxIEM2Ny41MjI5NDU2LDE3NS45NTM5NDEgNjIuODUxMjEzNCwxNzkuMjMzMjA1IDYwLjA0ODA2NjksMTg1LjA1OTYxNSBDNTkuMDk5NTgxNiwxODcuMDI5NDIzIDU4LjY2NzM4MDgsMTg5LjEyMTMzOSA1OC42NjczODA4LDE5MS4zMDAwMTcgTDU4LjY2NzM4MDgsMTkxLjMwMDAxNyBaIE0xMjkuMzI0NDUyLDE3Ni41NzMwNTQgQzEyOC4xNTQ3NzgsMTc2LjAyNTE3MiAxMjUuOTY0MzE4LDE3NS44NDMwNzkgMTI0LjY5OTg0OSwxNzUuNzk0ODc5IEMxMTguMjI1OTQxLDE3NS41NTExOTcgMTEzLjU0MTg5MSwxNzkuMTk2Nzg3IDExMC43OTM5MDgsMTg0LjkwODA1IEMxMDkuODQ1NDIzLDE4Ni44Nzc4NTggMTA5LjQxMjE1MSwxODguOTYzMzQ3IDEwOS40MTIxNTEsMTkxLjE0MzA5NiBDMTA5LjQxMjE1MSwxOTcuNzgwMzUxIDExMi44OTY1MzYsMjAyLjQyNjkxMiAxMTguODIwOTU0LDIwNS4yNTk1MTUgQzEyMC45ODUxNzIsMjA2LjI5MzY5IDEyMy43NzkyMTMsMjA2LjQ5MDc3OCAxMjYuMTQ0MjY4LDIwNi40OTA3NzggQzEyOC4yMjQ5MzcsMjA2LjQ5MDc3OCAxMzEuMTY0MTE3LDIwNS4yMTU1OTggMTMzLjAxMDIwOSwyMDQuMzM4ODc5IEwxMzMuMzMwNDc3LDIwNC4xODczMTQgTDEzNC43NjI1NzcsMjA0LjE4NzMxNCBMMTM0LjkyMDU2OSwyMDQuMjE5NDQ4IEMxMzYuNjgzMTEzLDIwNC41ODU3NzQgMTM4LjAxMzQ1NiwyMDUuNzAyOTYyIDEzOC4wMTM0NTYsMjA3LjU5OTM5NyBMMTM4LjAxMzQ1NiwyMDguMzY2MzI2IEMxMzguMDEzNDU2LDIxMy4wODM1ODIgMTI5LjM5MTM5NywyMTQuMTY0MzUxIDEyNi4xMDE0MjMsMjE0LjM5MzU3MyBDMTE0LjQ5MTQ0OCwyMTUuMTk3NDU2IDEwNS44MDgzMzUsMjA4LjgyMTAyMSAxMDIuNDk4MDA4LDE5Ny43NDY2MTEgQzEwMS45MjI4MTIsMTk1LjgyNDQ2OSAxMDEuNjY0MTM0LDE5My45MTQxMDkgMTAxLjY2NDEzNCwxOTEuOTEwMDI1IEwxMDEuNjY0MTM0LDE5MC4zNzY3MDMgQzEwMS42NjQxMzQsMTgxLjk3MzY5IDEwNS44MzM1MDYsMTc1LjMxODIyNiAxMTMuMDQwNjAzLDE3MS4wMzYzODUgQzExNi4zOTIxNjcsMTY5LjA0NjIyNiAxMjAuMDk4Mjc2LDE2OC4wNDY4NjIgMTIzLjk5MTgzMywxNjguMDQ2ODYyIEwxMjUuNTI3Mjk3LDE2OC4wNDY4NjIgQzEyOS42NTcwMzgsMTY4LjA0Njg2MiAxMzMuNDYxMTU1LDE2OS4yMTk3NDkgMTM2Ljg3MTA5NiwxNzEuNTQ4OTIxIEwxMzcuMTUxNzMyLDE3MS43NDI3OTUgTDEzNy4zMjg0NjksMTcyLjAzNDY3OCBDMTM3LjY5NjQwMiwxNzIuNjQ1MjIyIDEzOC4wMTM0NTYsMTczLjM1MDU2MSAxMzguMDEzNDU2LDE3NC4wNzczMjIgTDEzOC4wMTM0NTYsMTc0Ljg0NDI1MSBDMTM4LjAxMzQ1NiwxNzYuODIyMDkyIDEzNi41MzM2OSwxNzcuODg1NzI0IDEzNC43NDcwNDYsMTc4LjIzMDA5MiBMMTM0LjU5OTIzLDE3OC4yNTYzMzUgTDEzNC4xNDEzMjIsMTc4LjI1NjMzNSBDMTMyLjk4NDUwMiwxNzguMjU2MzM1IDEzMC4zNTY0ODUsMTc3LjA1ODgxMiAxMjkuMzI0NDUyLDE3Ni41NzMwNTQgTDEyOS4zMjQ0NTIsMTc2LjU3MzA1NCBaIE0xNTQuNDU3OTc1LDE4MS44MTk5ODMgQzE1Ny40NjczMTQsMTc4LjgwNjM2IDE2MC40ODg0MzUsMTc1Ljc5ODA5MiAxNjMuNTQyNzYyLDE3Mi44MzM3NDEgQzE2NC4zOTQzMSwxNzIuMDA3MzY0IDE2Ny42MTczMzksMTY4LjUwNzQ0OCAxNjguODg2MDkyLDE2OC41MDc0NDggTDE3MC4yNzQyNzYsMTY4LjUwNzQ0OCBMMTcwLjQzMjI2OCwxNjguNTM5NTgyIEMxNzIuMTk5NjMyLDE2OC45MDY5NzkgMTczLjUyNDA4NCwxNzAuMDI2MzEgMTczLjUyNDA4NCwxNzEuOTI1OTU4IEwxNzMuNTI0MDg0LDE3Mi42OTIzNTEgQzE3My41MjQwODQsMTczLjk4ODQxOCAxNzIuMDA2MjkzLDE3NS40OTM4OTEgMTcxLjE2OTIwNSwxNzYuMzgwNzg3IEMxNjkuMzg4OTg3LDE3OC4yNjc1ODIgMTY3LjUxNDUxLDE4MC4wOTMzMjIgMTY1LjY5MjUxOSwxODEuOTQxNTU2IEwxNTYuMzMxMzgxLDE5MS40NDQ2MTkgQzE2MC4zNjIwNDIsMTk1LjQ4NDM4NSAxNjQuMzg4OTU0LDE5OS41Mjg0MzUgMTY4LjM4Njk0NiwyMDMuNTk5MjY0IEMxNjkuNDkyODg3LDIwNC43MjUwMjEgMTcwLjU5OTM2NCwyMDUuODUyMzg1IDE3MS42ODgxNjcsMjA2Ljk5NDc0NSBDMTcyLjA3MzIzOCwyMDcuMzk5NjMyIDE3Mi42NDE0NzMsMjA3LjkwMzU5OCAxNzIuOTY0NDE4LDIwOC40NjU0MDYgQzE3My4zMTA5MjksMjA4Ljk5MDc5NSAxNzMuNTI0MDg0LDIwOS41ODM2NjUgMTczLjUyNDA4NCwyMTAuMjE2NzAzIEwxNzMuNTI0MDg0LDIxMS4wMTc5MDggTDE3My40NzkwOTYsMjExLjIwMjE0MiBDMTczLjA0MzY4MiwyMTIuOTY5NTA2IDE3MS45MjE2NzQsMjE0LjM5NjI1MSAxNjkuOTYyNTc3LDIxNC4zOTYyNTEgTDE2OS4zNDYxNDIsMjE0LjM5NjI1MSBDMTY4LjA2NCwyMTQuMzk2MjUxIDE2Ni42MTYzNjgsMjEyLjk0NTQwNiAxNjUuNzM3NTA2LDIxMi4xMTc0MjMgQzE2My45Mjg5MDQsMjEwLjQxMTExMyAxNjIuMTgwODIsMjA4LjYxNjk3MSAxNjAuNDA3MDI5LDIwNi44NzQyNDMgTDE1NC40NTc5NzUsMjAxLjAzNDQ0NCBMMTU0LjQ1Nzk3NSwyMTAuMzY4MjY4IEMxNTQuNDU3OTc1LDIxMi41MTgwMjUgMTUzLjExMjEsMjE0LjI0NTc1NyAxNTAuODg4OTcxLDIxNC4yNDU3NTcgTDE1MC4yNzg0MjcsMjE0LjI0NTc1NyBDMTQ4LjA1MzE1NSwyMTQuMjQ1NzU3IDE0Ni43MDk0MjMsMjEyLjUxODAyNSAxNDYuNzA5NDIzLDIxMC4zNjgyNjggTDE0Ni43MDk0MjMsMTU3Ljc3MjA1IEMxNDYuNzA5NDIzLDE1NS42MjEyMjIgMTQ4LjA1NDIyNiwxNTMuOTAxNTIzIDE1MC4yNzg0MjcsMTUzLjkwMTUyMyBMMTUwLjg4ODk3MSwxNTMuOTAxNTIzIEMxNTMuMTEyMSwxNTMuOTAxNTIzIDE1NC40NTc5NzUsMTU1LjYyMTIyMiAxNTQuNDU3OTc1LDE1Ny43NzIwNSBMMTU0LjQ1Nzk3NSwxODEuODE5OTgzIEwxNTQuNDU3OTc1LDE4MS44MTk5ODMgWiBNMjUxLjAzNTMxNCwxNjguNTA3NDQ4IEwyNTEuODA0Mzg1LDE2OC41MDc0NDggQzI1NC4xMjg3MzYsMTY4LjUwNzQ0OCAyNTUuNjc5NzMyLDE3MC4wNzM0MzkgMjU1LjY3OTczMiwxNzIuMzgzODY2IEMyNTUuNjc5NzMyLDE3NS41OTE5IDI1Mi42MTMwODgsMTc2LjQxMjkyMSAyNDkuOTU5MzY0LDE3Ni40MTI5MjEgQzI0Ni40NzkyNjQsMTc2LjQxMjkyMSAyNDMuMTU3MTU1LDE3OC41MTk4MzMgMjQwLjc1ODM2LDE4MC44ODI3NDUgQzIzNy43NjY2OTUsMTgzLjgzMTU2NSAyMzYuNDU3MjM4LDE4Ny42MDg5MDQgMjM2LjQ1NzIzOCwxOTEuNzYwNjAzIEwyMzYuNDU3MjM4LDIxMC41MTk4MzMgQzIzNi40NTcyMzgsMjEyLjY3MDY2MSAyMzUuMTE1MTEzLDIxNC4zOTYyNTEgMjMyLjg4NzE2MywyMTQuMzk2MjUxIEwyMzIuMjc2MDg0LDIxNC4zOTYyNTEgQzIzMC4wNDkyMDUsMjE0LjM5NjI1MSAyMjguNzA3MDc5LDIxMi42NzA2NjEgMjI4LjcwNzA3OSwyMTAuNTE5ODMzIEwyMjguNzA3MDc5LDE5MC42ODQxMTcgQzIyOC43MDcwNzksMTgzLjA2Njc3OCAyMzIuNDE1MzMxLDE3Ni44NDk0MDYgMjM4LjU5NjI4NSwxNzIuNDg4MzAxIEMyNDIuMjg4NDY5LDE2OS44ODI3NzggMjQ2LjUxNTY4MiwxNjguNTA3NDQ4IDI1MS4wMzUzMTQsMTY4LjUwNzQ0OCBMMjUxLjAzNTMxNCwxNjguNTA3NDQ4IFogTTE5NS45NjA1MDIsMjA1LjY4MzE0NiBDMTk4Ljc4MDI1MSwyMDYuNjY3NTE1IDIwMS45OTU3ODIsMjA2LjUyNzE5NyAyMDQuODg4OTA0LDIwNi4wMjMyMyBDMjA2LjM2ODEzNCwyMDUuMzk0NDc3IDIxMC4xNTI5NzEsMjAzLjc0Mzg2NiAyMTEuNTQ0OTA0LDIwMy45ODU0MDYgTDIxMS43NjIzNDMsMjA0LjAyMTgyNCBMMjExLjk2MjEwOSwyMDQuMTIwMzY4IEMyMTIuODExNTE1LDIwNC41MzIyMTggMjEzLjYyMzQzMSwyMDUuMTE0OTEyIDIxNC4wNTY3MDMsMjA1Ljk3OTMxNCBDMjE1LjA3MTA2MywyMDguMDA3NDk4IDIxNC41ODM2OTksMjEwLjA0NDc4NyAyMTIuNTkxOTMzLDIxMS4xOTU3MTUgTDIxMS45Mjg5MDQsMjExLjU3ODY0NCBDMjA0LjU3ODI3NiwyMTUuODIxMzg5IDE5Ni43NjA2MzYsMjE1LjIzMzMzOSAxODkuNDM0MTA5LDIxMS4yNzA2OTUgQzE4NS45MzA5NzksMjA5LjM3NzQ3MyAxODMuMjUxMDEzLDIwNi41NjU3NTcgMTgxLjI3NDI0MywyMDMuMTM5MjEzIEwxODAuODExNTE1LDIwMi4zMzgwMDggQzE3Ni4wOTMxODgsMTk0LjE2NjM2IDE3Ni43Mjk5NzUsMTg1LjU3MDAwOCAxODIuMDUxMzQ3LDE3Ny43OTg5NjIgQzE4My44ODg4NywxNzUuMTEzMTA1IDE4Ni4yODk4MDgsMTczLjAzNzc5MSAxODkuMDk3MjM4LDE3MS40MTUwMjkgTDE5MC4xNTkyNjQsMTcwLjgwMjM0MyBDMTk3LjA4MTQzOSwxNjYuODA2NDk0IDIwNC41MDAwODQsMTY3LjA3OTYzMiAyMTEuNjA5NzA3LDE3MC41ODcwNDYgQzIxNS40MzIwMzMsMTcyLjQ3Mjc3IDIxOC41MjkyMDUsMTc1LjI4NDQ4NSAyMjAuNjYzNDMxLDE3OC45ODA5NTQgTDIyMS4wNDY4OTUsMTc5LjY0NjY2MSBDMjIyLjU5NzM1NiwxODIuMzMyNTE5IDIyMC41ODg5ODcsMTg0LjY3MzQ3MyAyMTguNTE1ODE2LDE4Ni4yNzMyMDUgQzIxNi4xMTAwNTksMTg4LjEyOTQ3MyAyMTMuNjgwNzM2LDE5MC4zNjI3NzggMjExLjM3NDU5NCwxOTIuMzUzNDczIEMyMDYuMjMzMTcyLDE5Ni43OTE2OTkgMjAxLjA5OTI0NywyMDEuMjQwNjM2IDE5NS45NjA1MDIsMjA1LjY4MzE0NiBMMTk1Ljk2MDUwMiwyMDUuNjgzMTQ2IFogTTE4OS4zMDU1NzMsMjAxLjAwOTI3MiBDMTk1LjA1NjQ2OSwxOTYuMDc4MzI2IDIwMC44MDg0MzUsMTkxLjE0NDE2NyAyMDYuNTQyNzI4LDE4Ni4xOTM0MDYgQzIwOC41MDIzNiwxODQuNTAzMTYzIDIxMC42NTE1ODIsMTgyLjc0OTE4OCAyMTIuNTk2MjE4LDE4MC45NzE2NDkgQzIxMS4wMzU1ODIsMTc5LjAwNjEyNiAyMDguNDMwMDU5LDE3Ny41ODkwMjEgMjA2LjIxNTQ5OCwxNzYuNzQzOSBDMjAxLjc0Njc0NSwxNzUuMDQwODAzIDE5Ny4zMzkwNDYsMTc1LjYxMjc4NyAxOTMuMjQwMzY4LDE3Ny45Nzg5MTIgQzE4Ny44NzQ1NDQsMTgxLjA3NjYxOSAxODUuNTg5ODI0LDE4Ni4wMTAyNDMgMTg1Ljc5MDY2MSwxOTIuMTQ5NDIzIEMxODUuODY5Mzg5LDE5NC41NjY5NjIgMTg2LjUyMDEsMTk2Ljg5NjY2OSAxODcuODAzMzE0LDE5OC45NTM3NzQgQzE4OC4yNTUzMzEsMTk5LjY3ODkyOSAxODguNzYwMzY4LDIwMC4zNTk2MzIgMTg5LjMwNTU3MywyMDEuMDA5MjcyIEwxODkuMzA1NTczLDIwMS4wMDkyNzIgWiIvPiYjeGE7ICAgICAgICA8cGF0aCBmaWxsPSIjMzY0NTQ4IiBkPSJNMTQ3LjQ4NzU5OCw0NS43MzI0MTg0IEwxNzAuMzUzNTQsNDUuNzMyNDE4NCBMMTcwLjM1MzU0LDY5LjEwNzE0NjQgTDE4MS45MTUzMTQsNjkuMTA3MTQ2NCBDMTg3LjI1NDM2LDY5LjEwNzE0NjQgMTkyLjc0NjA0Miw2OC4xNTU5ODMzIDE5Ny44MDIzMSw2Ni40NDI3MTEzIEMyMDAuMjg2Nzk1LDY1LjYwMDI2NzggMjAzLjA3NTQ4MSw2NC40Mjc5MTYzIDIwNS41MjYyMjYsNjIuOTUzNTA2MyBDMjAyLjI5ODM3Nyw1OC43MzkxNDY0IDIwMC42NTA0NDQsNTMuNDE3Nzc0MSAyMDAuMTY1MjIyLDQ4LjE3MjQ1MTkgQzE5OS41MDY0NzcsNDEuMDM4MTkyNSAyMDAuOTQ1NTQsMzEuNzUyMDMzNSAyMDUuNzc0MTkyLDI2LjE2ODIzNDMgTDIwOC4xNzc4MDgsMjMuMzg4MTE3MiBMMjExLjA0MjAwOCwyNS42OTA1MTA1IEMyMTguMjUzMzg5LDMxLjQ4NDI1MSAyMjQuMzE4MTI2LDM5LjU3OTg0OTQgMjI1LjM4NzExMyw0OC44MDg3MDI5IEMyMzQuMDcwMjI2LDQ2LjI1NDU5NDEgMjQ0LjI2NDcwMyw0Ni44NTg3MTEzIDI1MS45MTg0Niw1MS4yNzYwNTAyIEwyNTUuMDU4NDc3LDUzLjA4Nzg2NjEgTDI1My40MDU3MjQsNTYuMzEzNTczMiBDMjQ2LjkzMjg4Nyw2OC45NDY0NzcgMjMzLjQwMDc3LDcyLjg1OTg0OTQgMjIwLjE3MDcxMSw3Mi4xNjczNjQgQzIwMC4zNzM1NTYsMTIxLjQ3NTc0OSAxNTcuMjcyOTA0LDE0NC44MTk5NSAxMDUuMDEzNTU2LDE0NC44MTk5NSBDNzguMDE0NjYxMSwxNDQuODE5OTUgNTMuMjQzNzE1NSwxMzQuNzI3MjMgMzkuMTM4MDA4NCwxMTAuNzczMDIxIEwzOC45MDY2NDQ0LDExMC4zODIwNTkgTDM2Ljg1MTY4MiwxMDYuMjAwOTA0IEMzMi4wODM1NDgxLDk1LjY1NjcwMjkgMzAuNDk5ODgyOCw4NC4xMDU2NDAyIDMxLjU3NDIyNTksNzIuNTY0MjE3NiBMMzEuODk2NjM2LDY5LjEwNzE0NjQgTDUxLjQ0OTU3MzIsNjkuMTA3MTQ2NCBMNTEuNDQ5NTczMiw0NS43MzI0MTg0IEw3NC4zMTQ5NzkxLDQ1LjczMjQxODQgTDc0LjMxNDk3OTEsMjIuODY1OTQxNCBMMTIwLjA0NzkzMywyMi44NjU5NDE0IEwxMjAuMDQ3OTMzLDAgTDE0Ny40ODc1OTgsMCBMMTQ3LjQ4NzU5OCw0NS43MzI0MTg0Ii8+JiN4YTsgICAgICAgIDxwYXRoIGZpbGw9IiMyMkEwQzgiIGQ9Ik0yMjEuNTcwMTQyLDU0LjM3OTY0ODUgQzIyMy4xMDM0NjQsNDIuNDY0NDAxNyAyMTQuMTg2MzEsMzMuMTA0ODcwMyAyMDguNjU2MDY3LDI4LjY2MTI4ODcgQzIwMi4yODMzODEsMzYuMDI5MDU0NCAyMDEuMjkzMTIxLDU1LjMzODg0NTIgMjExLjI5MTA0Niw2My40Njg3MTk3IEMyMDUuNzExNTMxLDY4LjQyNDgzNjggMTkzLjk1Mzc0MSw3Mi45MTcxNTQ4IDE4MS45MTUzMTQsNzIuOTE3MTU0OCBMMzUuMzcwMzA5Niw3Mi45MTcxNTQ4IEMzNC4xOTk1NjQ5LDg1LjQ4NDE4NDEgMzYuNDA2MDkyMSw5Ny4wNTY2Njk1IDQxLjQ0NDY4NjIsMTA2Ljk2MjQ3NyBMNDMuMTExODk5NiwxMTAuMDExNDQ4IEM0NC4xNjc0OTc5LDExMS44MDI5MTIgNDUuMzIwNTY5LDExMy41MzE3MTUgNDYuNTY2ODI4NSwxMTUuMTk2MjUxIEw0Ni41NjczNjQsMTE1LjE5NjI1MSBDNTIuNTkxOTMzMSwxMTUuNTgyOTI5IDU4LjE0NjgxMTcsMTE1LjcxNjgyIDYzLjIyODc4NjYsMTE1LjYwNDM1MSBMNjMuMjMwOTI4OSwxMTUuNjA0MzUxIEM3My4yMTgxNDIzLDExNS4zODMxNjMgODEuMzY2NzYxNSwxMTQuMjA0OTIxIDg3LjU0Mjg5NTQsMTEyLjA2NDgwMyBDODguNDYyNDYwMywxMTEuNzQ1MDcxIDg5LjQ2NDUwMjEsMTEyLjIzMjk3MSA4OS43ODI2Mjc2LDExMy4xNTE0NjQgQzkwLjEwMDIxNzYsMTE0LjA2OTk1OCA4OS42MTM5MjQ3LDExNS4wNzI1MzYgODguNjk1NDMxLDExNS4zOTExOTcgQzg3Ljg3NDQxLDExNS42NzU1ODIgODcuMDE4MDQxOCwxMTUuOTQxNzU3IDg2LjEzMzgyNDMsMTE2LjE5NDU0NCBDODYuMTMyNzUzMSwxMTYuMTk1MDc5IDg2LjEzMTY4MiwxMTYuMTk1MDc5IDg2LjEzMDYxMDksMTE2LjE5NTYxNSBDODEuMjY3NjgyLDExNy41ODM3OTkgNzYuMDUzNDIyNiwxMTguNTE4MzYgNjkuMzI1MTIxMywxMTguOTMzNDIzIEM2OS43MjQxMTcyLDExOC45Mzk4NDkgNjguOTA4OTg3NCwxMTguOTkzNDA2IDY4LjkwNjg0NTIsMTE4Ljk5Mzk0MSBDNjguNjc4MTU5LDExOS4wMDc4NjYgNjguMzkwMDI1MSwxMTkuMDQwNTM2IDY4LjE2MDI2NzgsMTE5LjA1MzM4OSBDNjUuNTEyNDM1MSwxMTkuMjAxNzQxIDYyLjY1NDEyNTUsMTE5LjIzMjgwMyA1OS43MzIwODM3LDExOS4yMzI4MDMgQzU2LjUzNjM2ODIsMTE5LjIzMjgwMyA1My4zODg4NTM2LDExOS4xNzIyODUgNDkuODcwMTkyNSwxMTguOTkzOTQxIEw0OS43ODAyMTc2LDExOS4wNTMzODkgQzYxLjk5MDU2MDcsMTMyLjc3NzIzOCA4MS4wODIzNzY2LDE0MS4wMDgzMzUgMTA1LjAxMzU1NiwxNDEuMDA4MzM1IEMxNTUuNjYxOTI1LDE0MS4wMDgzMzUgMTk4LjYyMjI1OSwxMTguNTU2Mzg1IDIxNy42NDU1MjMsNjguMTUwNjI3NiBDMjMxLjE0MjI5Myw2OS41MzU1OTgzIDI0NC4xMTMxMzgsNjYuMDk0MDU4NiAyNTAuMDEzNDU2LDU0LjU3NjIwMDggQzI0MC42MTQ4MjgsNDkuMTUyNTM1NiAyMjguNTI5MjcyLDUwLjg4MTg3NDUgMjIxLjU3MDE0Miw1NC4zNzk2NDg1Ii8+JiN4YTsgICAgICAgIDxwYXRoIGZpbGw9IiMzN0IxRDkiIGQ9Ik0yMjEuNTcwMTQyLDU0LjM3OTY0ODUgQzIyMy4xMDM0NjQsNDIuNDY0NDAxNyAyMTQuMTg2MzEsMzMuMTA0ODcwMyAyMDguNjU2MDY3LDI4LjY2MTI4ODcgQzIwMi4yODMzODEsMzYuMDI5MDU0NCAyMDEuMjkzMTIxLDU1LjMzODg0NTIgMjExLjI5MTA0Niw2My40Njg3MTk3IEMyMDUuNzExNTMxLDY4LjQyNDgzNjggMTkzLjk1Mzc0MSw3Mi45MTcxNTQ4IDE4MS45MTUzMTQsNzIuOTE3MTU0OCBMNDQuMDQ4MDY2OSw3Mi45MTcxNTQ4IEM0My40NDk4NDEsOTIuMTYzMjEzNCA1MC41OTIxMzM5LDEwNi43NzIzNTEgNjMuMjI4Nzg2NiwxMTUuNjA0MzUxIEw2My4yMzA5Mjg5LDExNS42MDQzNTEgQzczLjIxODE0MjMsMTE1LjM4MzE2MyA4MS4zNjY3NjE1LDExNC4yMDQ5MjEgODcuNTQyODk1NCwxMTIuMDY0ODAzIEM4OC40NjI0NjAzLDExMS43NDUwNzEgODkuNDY0NTAyMSwxMTIuMjMyOTcxIDg5Ljc4MjYyNzYsMTEzLjE1MTQ2NCBDOTAuMTAwMjE3NiwxMTQuMDY5OTU4IDg5LjYxMzkyNDcsMTE1LjA3MjUzNiA4OC42OTU0MzEsMTE1LjM5MTE5NyBDODcuODc0NDEsMTE1LjY3NTU4MiA4Ny4wMTgwNDE4LDExNS45NDE3NTcgODYuMTMzODI0MywxMTYuMTk0NTQ0IEM4Ni4xMzI3NTMxLDExNi4xOTUwNzkgODYuMTMxNjgyLDExNi4xOTUwNzkgODYuMTMwNjEwOSwxMTYuMTk1NjE1IEM4MS4yNjc2ODIsMTE3LjU4Mzc5OSA3NS42MDUxNTQ4LDExOC42MzgzMjYgNjguODc2ODUzNiwxMTkuMDUzMzg5IEM2OC44NzUyNDY5LDExOS4wNTMzODkgNjguNzE0MDQxOCwxMTguODk3NTQgNjguNzExODk5NiwxMTguODk4MDc1IEM4NS45NDg1MTg4LDEyNy43Mzk3MTUgMTEwLjk0MjI1OSwxMjcuNzA4MTE3IDEzOS41OTcxMjEsMTE2LjcwMDY1MyBDMTcxLjcyNzc5OSwxMDQuMzU3NDkgMjAxLjYyNTcwNyw4MC44NDA4MzY4IDIyMi40ODc1NjUsNTMuOTQzNjk4NyBDMjIyLjE3MjY1Myw1NC4wODU2MjM0IDIyMS44NjYzMSw1NC4yMzEyOTcxIDIyMS41NzAxNDIsNTQuMzc5NjQ4NSIvPiYjeGE7ICAgICAgICA8cGF0aCBmaWxsPSIjMUI4MUE1IiBkPSJNMzUuNjQ0NTE4OCw4OC4xODYxMDg4IEMzNi41NTU1MTQ2LDk0LjkxNzYyMzQgMzguNTI0MjUxLDEwMS4yMjA2ODYgNDEuNDQ0Njg2MiwxMDYuOTYyNDc3IEw0My4xMTE4OTk2LDExMC4wMTE0NDggQzQ0LjE2NzQ5NzksMTExLjgwMjkxMiA0NS4zMjA1NjksMTEzLjUzMTcxNSA0Ni41NjczNjQsMTE1LjE5NjI1MSBDNTIuNTkzMDA0MiwxMTUuNTgyOTI5IDU4LjE0ODQxODQsMTE1LjcxNjgyIDYzLjIzMDkyODksMTE1LjYwNDM1MSBDNzMuMjE4MTQyMywxMTUuMzgzMTYzIDgxLjM2Njc2MTUsMTE0LjIwNDkyMSA4Ny41NDI4OTU0LDExMi4wNjQ4MDMgQzg4LjQ2MjQ2MDMsMTExLjc0NTA3MSA4OS40NjQ1MDIxLDExMi4yMzI5NzEgODkuNzgyNjI3NiwxMTMuMTUxNDY0IEM5MC4xMDAyMTc2LDExNC4wNjk5NTggODkuNjEzOTI0NywxMTUuMDcyNTM2IDg4LjY5NTQzMSwxMTUuMzkxMTk3IEM4Ny44NzQ0MSwxMTUuNjc1NTgyIDg3LjAxODA0MTgsMTE1Ljk0MTc1NyA4Ni4xMzM4MjQzLDExNi4xOTQ1NDQgQzg2LjEzMjc1MzEsMTE2LjE5NTA3OSA4Ni4xMzE2ODIsMTE2LjE5NTA3OSA4Ni4xMzA2MTA5LDExNi4xOTU2MTUgQzgxLjI2NzY4MiwxMTcuNTgzNzk5IDc1LjYzNTE0NjQsMTE4LjU3ODM0MyA2OC45MDY4NDUyLDExOC45OTM5NDEgQzY4LjY3NjAxNjcsMTE5LjAwNzg2NiA2OC4yNzMyNzIsMTE5LjAxMDU0NCA2OC4wNDAzMDEzLDExOS4wMjMzOTcgQzY1LjM5MzUzOTcsMTE5LjE3MjI4NSA2Mi41NjQ2ODYyLDExOS4yNjI3OTUgNTkuNjQyMTA4OCwxMTkuMjYyNzk1IEM1Ni40NDY5Mjg5LDExOS4yNjI3OTUgNTMuMTc5NDQ3NywxMTkuMjAxNzQxIDQ5LjY2MTMyMjIsMTE5LjAyMzM5NyBDNjEuODcxMTI5NywxMzIuNzQ3MjQ3IDgxLjA4MjM3NjYsMTQxLjAwODMzNSAxMDUuMDEzNTU2LDE0MS4wMDgzMzUgQzE0OC4zNzM0MjMsMTQxLjAwODMzNSAxODYuMDk3NTQsMTI0LjU1MDQyNyAyMDcuOTkyNTAyLDg4LjE4NjEwODggTDM1LjY0NDUxODgsODguMTg2MTA4OCIvPiYjeGE7ICAgICAgICA8cGF0aCBmaWxsPSIjMUQ5MUI0IiBkPSJNNDUuMzY3MTYzMiw4OC4xODYxMDg4IEM0Ny45NTkyOTcxLDEwMC4wMDU0OSA1NC4xODg0NTE5LDEwOS4yODQ2ODYgNjMuMjMwOTI4OSwxMTUuNjA0MzUxIEM3My4yMTgxNDIzLDExNS4zODMxNjMgODEuMzY2NzYxNSwxMTQuMjA0OTIxIDg3LjU0Mjg5NTQsMTEyLjA2NDgwMyBDODguNDYyNDYwMywxMTEuNzQ1MDcxIDg5LjQ2NDUwMjEsMTEyLjIzMjk3MSA4OS43ODI2Mjc2LDExMy4xNTE0NjQgQzkwLjEwMDIxNzYsMTE0LjA2OTk1OCA4OS42MTM5MjQ3LDExNS4wNzI1MzYgODguNjk1NDMxLDExNS4zOTExOTcgQzg3Ljg3NDQxLDExNS42NzU1ODIgODcuMDE4MDQxOCwxMTUuOTQxNzU3IDg2LjEzMzgyNDMsMTE2LjE5NDU0NCBDODYuMTMyNzUzMSwxMTYuMTk1MDc5IDg2LjEzMTY4MiwxMTYuMTk1MDc5IDg2LjEzMDYxMDksMTE2LjE5NTYxNSBDODEuMjY3NjgyLDExNy41ODM3OTkgNzUuNTE1NzE1NSwxMTguNTc4MzQzIDY4Ljc4NzQxNDIsMTE4Ljk5Mzk0MSBDODYuMDIyOTYyMywxMjcuODMzOTc1IDExMC45NDQ0MDIsMTI3LjcwNzA0NiAxMzkuNTk3MTIxLDExNi43MDA2NTMgQzE1Ni45MzEyMTMsMTEwLjA0MDkwNCAxNzMuNjE0MDU5LDEwMC4xMjY1MjcgMTg4LjU4MTQ5LDg4LjE4NjEwODggTDQ1LjM2NzE2MzIsODguMTg2MTA4OCIvPiYjeGE7ICAgICAgICA8cGF0aCBmaWxsPSIjMjNBM0MyIiBkPSJNNTUuMjYwNjUyNyw0OS41NDI5NjIzIEw3NS4wNzc2MjM0LDQ5LjU0Mjk2MjMgTDc1LjA3NzYyMzQsNjkuMzYxMDA0MiBMNTUuMjYwNjUyNyw2OS4zNjEwMDQyIEw1NS4yNjA2NTI3LDQ5LjU0Mjk2MjMgWiBNNTYuOTExMjYzNiw1MS4xOTQ2NDQ0IEw1OC40NzUxMTMsNTEuMTk0NjQ0NCBMNTguNDc1MTEzLDY3LjcxMDM5MzMgTDU2LjkxMTI2MzYsNjcuNzEwMzkzMyBMNTYuOTExMjYzNiw1MS4xOTQ2NDQ0IFogTTU5Ljg1MTUxNDYsNTEuMTk0NjQ0NCBMNjEuNDc4MDI1MSw1MS4xOTQ2NDQ0IEw2MS40NzgwMjUxLDY3LjcxMDM5MzMgTDU5Ljg1MTUxNDYsNjcuNzEwMzkzMyBMNTkuODUxNTE0Niw1MS4xOTQ2NDQ0IFogTTYyLjg1MzM1NTYsNTEuMTk0NjQ0NCBMNjQuNDc5ODY2MSw1MS4xOTQ2NDQ0IEw2NC40Nzk4NjYxLDY3LjcxMDM5MzMgTDYyLjg1MzM1NTYsNjcuNzEwMzkzMyBMNjIuODUzMzU1Niw1MS4xOTQ2NDQ0IFogTTY1Ljg1NjgwMzMsNTEuMTk0NjQ0NCBMNjcuNDgzMzEzOCw1MS4xOTQ2NDQ0IEw2Ny40ODMzMTM4LDY3LjcxMDM5MzMgTDY1Ljg1NjgwMzMsNjcuNzEwMzkzMyBMNjUuODU2ODAzMyw1MS4xOTQ2NDQ0IFogTTY4Ljg1OTcxNTUsNTEuMTk0NjQ0NCBMNzAuNDg2MjI1OSw1MS4xOTQ2NDQ0IEw3MC40ODYyMjU5LDY3LjcxMDM5MzMgTDY4Ljg1OTcxNTUsNjcuNzEwMzkzMyBMNjguODU5NzE1NSw1MS4xOTQ2NDQ0IFogTTcxLjg2MjA5MjEsNTEuMTk0NjQ0NCBMNzMuNDI3MDEyNiw1MS4xOTQ2NDQ0IEw3My40MjcwMTI2LDY3LjcxMDM5MzMgTDcxLjg2MjA5MjEsNjcuNzEwMzkzMyBMNzEuODYyMDkyMSw1MS4xOTQ2NDQ0IFoiLz4mI3hhOyAgICAgICAgPHBhdGggZmlsbD0iIzIzQTNDMiIgZD0iTTc4LjEyNTUyMywyNi42NzcwMjA5IEw5Ny45NDQ2MzYsMjYuNjc3MDIwOSBMOTcuOTQ0NjM2LDQ2LjQ5Mzk5MTYgTDc4LjEyNTUyMyw0Ni40OTM5OTE2IEw3OC4xMjU1MjMsMjYuNjc3MDIwOSBaIE03OS43NzgyNzYyLDI4LjMyODcwMjkgTDgxLjM0MTA1NDQsMjguMzI4NzAyOSBMODEuMzQxMDU0NCw0NC44NDI4NDUyIEw3OS43NzgyNzYyLDQ0Ljg0Mjg0NTIgTDc5Ljc3ODI3NjIsMjguMzI4NzAyOSBaIE04Mi43MTg1MjcyLDI4LjMyODcwMjkgTDg0LjM0Mzk2NjUsMjguMzI4NzAyOSBMODQuMzQzOTY2NSw0NC44NDI4NDUyIEw4Mi43MTg1MjcyLDQ0Ljg0Mjg0NTIgTDgyLjcxODUyNzIsMjguMzI4NzAyOSBaIE04NS43MTk4MzI2LDI4LjMyODcwMjkgTDg3LjM0NjM0MzEsMjguMzI4NzAyOSBMODcuMzQ2MzQzMSw0NC44NDI4NDUyIEw4NS43MTk4MzI2LDQ0Ljg0Mjg0NTIgTDg1LjcxOTgzMjYsMjguMzI4NzAyOSBaIE04OC43MjI3NDQ4LDI4LjMyODcwMjkgTDkwLjM0OTI1NTIsMjguMzI4NzAyOSBMOTAuMzQ5MjU1Miw0NC44NDI4NDUyIEw4OC43MjI3NDQ4LDQ0Ljg0Mjg0NTIgTDg4LjcyMjc0NDgsMjguMzI4NzAyOSBaIE05MS43MjYxOTI1LDI4LjMyODcwMjkgTDkzLjM1MjcwMjksMjguMzI4NzAyOSBMOTMuMzUyNzAyOSw0NC44NDI4NDUyIEw5MS43MjYxOTI1LDQ0Ljg0Mjg0NTIgTDkxLjcyNjE5MjUsMjguMzI4NzAyOSBaIE05NC43MjgwMzM1LDI4LjMyODcwMjkgTDk2LjI5NDAyNTEsMjguMzI4NzAyOSBMOTYuMjk0MDI1MSw0NC44NDI4NDUyIEw5NC43MjgwMzM1LDQ0Ljg0Mjg0NTIgTDk0LjcyODAzMzUsMjguMzI4NzAyOSBaIi8+JiN4YTsgICAgICAgIDxwYXRoIGZpbGw9IiMzNEJCREUiIGQ9Ik03OC4xMjU1MjMsNDkuNTQyOTYyMyBMOTcuOTQ0NjM2LDQ5LjU0Mjk2MjMgTDk3Ljk0NDYzNiw2OS4zNjEwMDQyIEw3OC4xMjU1MjMsNjkuMzYxMDA0MiBMNzguMTI1NTIzLDQ5LjU0Mjk2MjMgWiBNNzkuNzc4Mjc2Miw1MS4xOTQ2NDQ0IEw4MS4zNDEwNTQ0LDUxLjE5NDY0NDQgTDgxLjM0MTA1NDQsNjcuNzEwMzkzMyBMNzkuNzc4Mjc2Miw2Ny43MTAzOTMzIEw3OS43NzgyNzYyLDUxLjE5NDY0NDQgWiBNODIuNzE4NTI3Miw1MS4xOTQ2NDQ0IEw4NC4zNDM5NjY1LDUxLjE5NDY0NDQgTDg0LjM0Mzk2NjUsNjcuNzEwMzkzMyBMODIuNzE4NTI3Miw2Ny43MTAzOTMzIEw4Mi43MTg1MjcyLDUxLjE5NDY0NDQgWiBNODUuNzE5ODMyNiw1MS4xOTQ2NDQ0IEw4Ny4zNDYzNDMxLDUxLjE5NDY0NDQgTDg3LjM0NjM0MzEsNjcuNzEwMzkzMyBMODUuNzE5ODMyNiw2Ny43MTAzOTMzIEw4NS43MTk4MzI2LDUxLjE5NDY0NDQgWiBNODguNzIyNzQ0OCw1MS4xOTQ2NDQ0IEw5MC4zNDkyNTUyLDUxLjE5NDY0NDQgTDkwLjM0OTI1NTIsNjcuNzEwMzkzMyBMODguNzIyNzQ0OCw2Ny43MTAzOTMzIEw4OC43MjI3NDQ4LDUxLjE5NDY0NDQgWiBNOTEuNzI2MTkyNSw1MS4xOTQ2NDQ0IEw5My4zNTI3MDI5LDUxLjE5NDY0NDQgTDkzLjM1MjcwMjksNjcuNzEwMzkzMyBMOTEuNzI2MTkyNSw2Ny43MTAzOTMzIEw5MS43MjYxOTI1LDUxLjE5NDY0NDQgWiBNOTQuNzI4MDMzNSw1MS4xOTQ2NDQ0IEw5Ni4yOTQwMjUxLDUxLjE5NDY0NDQgTDk2LjI5NDAyNTEsNjcuNzEwMzkzMyBMOTQuNzI4MDMzNSw2Ny43MTAzOTMzIEw5NC43MjgwMzM1LDUxLjE5NDY0NDQgWiIvPiYjeGE7ICAgICAgICA8cGF0aCBmaWxsPSIjMjNBM0MyIiBkPSJNMTAwLjk5MjUzNiw0OS41NDI5NjIzIEwxMjAuODEwNTc3LDQ5LjU0Mjk2MjMgTDEyMC44MTA1NzcsNjkuMzYxMDA0MiBMMTAwLjk5MjUzNiw2OS4zNjEwMDQyIEwxMDAuOTkyNTM2LDQ5LjU0Mjk2MjMgWiBNMTAyLjY0NDIxOCw1MS4xOTQ2NDQ0IEwxMDQuMjA2OTk2LDUxLjE5NDY0NDQgTDEwNC4yMDY5OTYsNjcuNzEwMzkzMyBMMTAyLjY0NDIxOCw2Ny43MTAzOTMzIEwxMDIuNjQ0MjE4LDUxLjE5NDY0NDQgWiBNMTA1LjU4MzkzMyw1MS4xOTQ2NDQ0IEwxMDcuMjEwNDQ0LDUxLjE5NDY0NDQgTDEwNy4yMTA0NDQsNjcuNzEwMzkzMyBMMTA1LjU4MzkzMyw2Ny43MTAzOTMzIEwxMDUuNTgzOTMzLDUxLjE5NDY0NDQgWiBNMTA4LjU4Njg0NSw1MS4xOTQ2NDQ0IEwxMTAuMjEzMzU2LDUxLjE5NDY0NDQgTDExMC4yMTMzNTYsNjcuNzEwMzkzMyBMMTA4LjU4Njg0NSw2Ny43MTAzOTMzIEwxMDguNTg2ODQ1LDUxLjE5NDY0NDQgWiBNMTExLjU4OTc1Nyw1MS4xOTQ2NDQ0IEwxMTMuMjE2MjY4LDUxLjE5NDY0NDQgTDExMy4yMTYyNjgsNjcuNzEwMzkzMyBMMTExLjU4OTc1Nyw2Ny43MTAzOTMzIEwxMTEuNTg5NzU3LDUxLjE5NDY0NDQgWiBNMTE0LjU5MjEzNCw1MS4xOTQ2NDQ0IEwxMTYuMjE5NzE1LDUxLjE5NDY0NDQgTDExNi4yMTk3MTUsNjcuNzEwMzkzMyBMMTE0LjU5MjEzNCw2Ny43MTAzOTMzIEwxMTQuNTkyMTM0LDUxLjE5NDY0NDQgWiBNMTE3LjU5NTA0Niw1MS4xOTQ2NDQ0IEwxMTkuMTU4ODk1LDUxLjE5NDY0NDQgTDExOS4xNTg4OTUsNjcuNzEwMzkzMyBMMTE3LjU5NTA0Niw2Ny43MTAzOTMzIEwxMTcuNTk1MDQ2LDUxLjE5NDY0NDQgWiIvPiYjeGE7ICAgICAgICA8cGF0aCBmaWxsPSIjMzRCQkRFIiBkPSJNMTAwLjk5MjUzNiwyNi42NzcwMjA5IEwxMjAuODEwNTc3LDI2LjY3NzAyMDkgTDEyMC44MTA1NzcsNDYuNDkzOTkxNiBMMTAwLjk5MjUzNiw0Ni40OTM5OTE2IEwxMDAuOTkyNTM2LDI2LjY3NzAyMDkgWiBNMTAyLjY0NDIxOCwyOC4zMjg3MDI5IEwxMDQuMjA2OTk2LDI4LjMyODcwMjkgTDEwNC4yMDY5OTYsNDQuODQyODQ1MiBMMTAyLjY0NDIxOCw0NC44NDI4NDUyIEwxMDIuNjQ0MjE4LDI4LjMyODcwMjkgWiBNMTA1LjU4MzkzMywyOC4zMjg3MDI5IEwxMDcuMjEwNDQ0LDI4LjMyODcwMjkgTDEwNy4yMTA0NDQsNDQuODQyODQ1MiBMMTA1LjU4MzkzMyw0NC44NDI4NDUyIEwxMDUuNTgzOTMzLDI4LjMyODcwMjkgWiBNMTA4LjU4Njg0NSwyOC4zMjg3MDI5IEwxMTAuMjEzMzU2LDI4LjMyODcwMjkgTDExMC4yMTMzNTYsNDQuODQyODQ1MiBMMTA4LjU4Njg0NSw0NC44NDI4NDUyIEwxMDguNTg2ODQ1LDI4LjMyODcwMjkgWiBNMTExLjU4OTc1NywyOC4zMjg3MDI5IEwxMTMuMjE2MjY4LDI4LjMyODcwMjkgTDExMy4yMTYyNjgsNDQuODQyODQ1MiBMMTExLjU4OTc1Nyw0NC44NDI4NDUyIEwxMTEuNTg5NzU3LDI4LjMyODcwMjkgWiBNMTE0LjU5MjEzNCwyOC4zMjg3MDI5IEwxMTYuMjE5NzE1LDI4LjMyODcwMjkgTDExNi4yMTk3MTUsNDQuODQyODQ1MiBMMTE0LjU5MjEzNCw0NC44NDI4NDUyIEwxMTQuNTkyMTM0LDI4LjMyODcwMjkgWiBNMTE3LjU5NTA0NiwyOC4zMjg3MDI5IEwxMTkuMTU4ODk1LDI4LjMyODcwMjkgTDExOS4xNTg4OTUsNDQuODQyODQ1MiBMMTE3LjU5NTA0Niw0NC44NDI4NDUyIEwxMTcuNTk1MDQ2LDI4LjMyODcwMjkgWiIvPiYjeGE7ICAgICAgICA8cGF0aCBmaWxsPSIjMzRCQkRFIiBkPSJNMTIzLjg1OTAxMyw0OS41NDI5NjIzIEwxNDMuNjc2NTE5LDQ5LjU0Mjk2MjMgTDE0My42NzY1MTksNjkuMzYxMDA0MiBMMTIzLjg1OTAxMyw2OS4zNjEwMDQyIEwxMjMuODU5MDEzLDQ5LjU0Mjk2MjMgWiBNMTI1LjUxMDY5NSw1MS4xOTQ2NDQ0IEwxMjcuMDc0MDA4LDUxLjE5NDY0NDQgTDEyNy4wNzQwMDgsNjcuNzEwMzkzMyBMMTI1LjUxMDY5NSw2Ny43MTAzOTMzIEwxMjUuNTEwNjk1LDUxLjE5NDY0NDQgWiBNMTI4LjQ1MDk0Niw1MS4xOTQ2NDQ0IEwxMzAuMDc3NDU2LDUxLjE5NDY0NDQgTDEzMC4wNzc0NTYsNjcuNzEwMzkzMyBMMTI4LjQ1MDk0Niw2Ny43MTAzOTMzIEwxMjguNDUwOTQ2LDUxLjE5NDY0NDQgWiBNMTMxLjQ1Mjc4Nyw1MS4xOTQ2NDQ0IEwxMzMuMDc5Mjk3LDUxLjE5NDY0NDQgTDEzMy4wNzkyOTcsNjcuNzEwMzkzMyBMMTMxLjQ1Mjc4Nyw2Ny43MTAzOTMzIEwxMzEuNDUyNzg3LDUxLjE5NDY0NDQgWiBNMTM0LjQ1NjIzNCw1MS4xOTQ2NDQ0IEwxMzYuMDgyNzQ1LDUxLjE5NDY0NDQgTDEzNi4wODI3NDUsNjcuNzEwMzkzMyBMMTM0LjQ1NjIzNCw2Ny43MTAzOTMzIEwxMzQuNDU2MjM0LDUxLjE5NDY0NDQgWiBNMTM3LjQ1OTE0Niw1MS4xOTQ2NDQ0IEwxMzkuMDg1NjU3LDUxLjE5NDY0NDQgTDEzOS4wODU2NTcsNjcuNzEwMzkzMyBMMTM3LjQ1OTE0Niw2Ny43MTAzOTMzIEwxMzcuNDU5MTQ2LDUxLjE5NDY0NDQgWiBNMTQwLjQ2MTUyMyw1MS4xOTQ2NDQ0IEwxNDIuMDI1OTA4LDUxLjE5NDY0NDQgTDE0Mi4wMjU5MDgsNjcuNzEwMzkzMyBMMTQwLjQ2MTUyMyw2Ny43MTAzOTMzIEwxNDAuNDYxNTIzLDUxLjE5NDY0NDQgWiIvPiYjeGE7ICAgICAgICA8cGF0aCBmaWxsPSIjMjNBM0MyIiBkPSJNMTIzLjg1OTAxMywyNi42NzcwMjA5IEwxNDMuNjc2NTE5LDI2LjY3NzAyMDkgTDE0My42NzY1MTksNDYuNDkzOTkxNiBMMTIzLjg1OTAxMyw0Ni40OTM5OTE2IEwxMjMuODU5MDEzLDI2LjY3NzAyMDkgWiBNMTI1LjUxMDY5NSwyOC4zMjg3MDI5IEwxMjcuMDc0MDA4LDI4LjMyODcwMjkgTDEyNy4wNzQwMDgsNDQuODQyODQ1MiBMMTI1LjUxMDY5NSw0NC44NDI4NDUyIEwxMjUuNTEwNjk1LDI4LjMyODcwMjkgWiBNMTI4LjQ1MDk0NiwyOC4zMjg3MDI5IEwxMzAuMDc3NDU2LDI4LjMyODcwMjkgTDEzMC4wNzc0NTYsNDQuODQyODQ1MiBMMTI4LjQ1MDk0Niw0NC44NDI4NDUyIEwxMjguNDUwOTQ2LDI4LjMyODcwMjkgWiBNMTMxLjQ1Mjc4NywyOC4zMjg3MDI5IEwxMzMuMDc5Mjk3LDI4LjMyODcwMjkgTDEzMy4wNzkyOTcsNDQuODQyODQ1MiBMMTMxLjQ1Mjc4Nyw0NC44NDI4NDUyIEwxMzEuNDUyNzg3LDI4LjMyODcwMjkgWiBNMTM0LjQ1NjIzNCwyOC4zMjg3MDI5IEwxMzYuMDgyNzQ1LDI4LjMyODcwMjkgTDEzNi4wODI3NDUsNDQuODQyODQ1MiBMMTM0LjQ1NjIzNCw0NC44NDI4NDUyIEwxMzQuNDU2MjM0LDI4LjMyODcwMjkgWiBNMTM3LjQ1OTE0NiwyOC4zMjg3MDI5IEwxMzkuMDg1NjU3LDI4LjMyODcwMjkgTDEzOS4wODU2NTcsNDQuODQyODQ1MiBMMTM3LjQ1OTE0Niw0NC44NDI4NDUyIEwxMzcuNDU5MTQ2LDI4LjMyODcwMjkgWiBNMTQwLjQ2MTUyMywyOC4zMjg3MDI5IEwxNDIuMDI1OTA4LDI4LjMyODcwMjkgTDE0Mi4wMjU5MDgsNDQuODQyODQ1MiBMMTQwLjQ2MTUyMyw0NC44NDI4NDUyIEwxNDAuNDYxNTIzLDI4LjMyODcwMjkgWiIvPiYjeGE7ICAgICAgICA8cGF0aCBmaWxsPSIjMzRCQkRFIiBkPSJNMTIzLjg1OTAxMywzLjgxMDU0MzkzIEwxNDMuNjc2NTE5LDMuODEwNTQzOTMgTDE0My42NzY1MTksMjMuNjI4NTg1OCBMMTIzLjg1OTAxMywyMy42Mjg1ODU4IEwxMjMuODU5MDEzLDMuODEwNTQzOTMgWiBNMTI1LjUxMDY5NSw1LjQ2MTE1NDgxIEwxMjcuMDc0MDA4LDUuNDYxMTU0ODEgTDEyNy4wNzQwMDgsMjEuOTc2OTAzOCBMMTI1LjUxMDY5NSwyMS45NzY5MDM4IEwxMjUuNTEwNjk1LDUuNDYxMTU0ODEgWiBNMTI4LjQ1MDk0Niw1LjQ2MTE1NDgxIEwxMzAuMDc3NDU2LDUuNDYxMTU0ODEgTDEzMC4wNzc0NTYsMjEuOTc2OTAzOCBMMTI4LjQ1MDk0NiwyMS45NzY5MDM4IEwxMjguNDUwOTQ2LDUuNDYxMTU0ODEgWiBNMTMxLjQ1Mjc4Nyw1LjQ2MTE1NDgxIEwxMzMuMDc5Mjk3LDUuNDYxMTU0ODEgTDEzMy4wNzkyOTcsMjEuOTc2OTAzOCBMMTMxLjQ1Mjc4NywyMS45NzY5MDM4IEwxMzEuNDUyNzg3LDUuNDYxMTU0ODEgWiBNMTM0LjQ1NjIzNCw1LjQ2MTE1NDgxIEwxMzYuMDgyNzQ1LDUuNDYxMTU0ODEgTDEzNi4wODI3NDUsMjEuOTc2OTAzOCBMMTM0LjQ1NjIzNCwyMS45NzY5MDM4IEwxMzQuNDU2MjM0LDUuNDYxMTU0ODEgWiBNMTM3LjQ1OTE0Niw1LjQ2MTE1NDgxIEwxMzkuMDg1NjU3LDUuNDYxMTU0ODEgTDEzOS4wODU2NTcsMjEuOTc2OTAzOCBMMTM3LjQ1OTE0NiwyMS45NzY5MDM4IEwxMzcuNDU5MTQ2LDUuNDYxMTU0ODEgWiBNMTQwLjQ2MTUyMyw1LjQ2MTE1NDgxIEwxNDIuMDI1OTA4LDUuNDYxMTU0ODEgTDE0Mi4wMjU5MDgsMjEuOTc2OTAzOCBMMTQwLjQ2MTUyMywyMS45NzY5MDM4IEwxNDAuNDYxNTIzLDUuNDYxMTU0ODEgWiIvPiYjeGE7ICAgICAgICA8cGF0aCBmaWxsPSIjMjNBM0MyIiBkPSJNMTQ2LjcyNDk1NCw0OS41NDI5NjIzIEwxNjYuNTQyOTk2LDQ5LjU0Mjk2MjMgTDE2Ni41NDI5OTYsNjkuMzYxMDA0MiBMMTQ2LjcyNDk1NCw2OS4zNjEwMDQyIEwxNDYuNzI0OTU0LDQ5LjU0Mjk2MjMgWiBNMTQ4LjM3NTU2NSw1MS4xOTQ2NDQ0IEwxNDkuOTQwNDg1LDUxLjE5NDY0NDQgTDE0OS45NDA0ODUsNjcuNzEwMzkzMyBMMTQ4LjM3NTU2NSw2Ny43MTAzOTMzIEwxNDguMzc1NTY1LDUxLjE5NDY0NDQgWiBNMTUxLjMxNTgxNiw1MS4xOTQ2NDQ0IEwxNTIuOTQyMzI2LDUxLjE5NDY0NDQgTDE1Mi45NDIzMjYsNjcuNzEwMzkzMyBMMTUxLjMxNTgxNiw2Ny43MTAzOTMzIEwxNTEuMzE1ODE2LDUxLjE5NDY0NDQgWiBNMTU0LjMxOTI2NCw1MS4xOTQ2NDQ0IEwxNTUuOTQ1Nzc0LDUxLjE5NDY0NDQgTDE1NS45NDU3NzQsNjcuNzEwMzkzMyBMMTU0LjMxOTI2NCw2Ny43MTAzOTMzIEwxNTQuMzE5MjY0LDUxLjE5NDY0NDQgWiBNMTU3LjMyMTEwNSw1MS4xOTQ2NDQ0IEwxNTguOTQ3NjE1LDUxLjE5NDY0NDQgTDE1OC45NDc2MTUsNjcuNzEwMzkzMyBMMTU3LjMyMTEwNSw2Ny43MTAzOTMzIEwxNTcuMzIxMTA1LDUxLjE5NDY0NDQgWiBNMTYwLjMyNTA4OCw1MS4xOTQ2NDQ0IEwxNjEuOTUxMDYzLDUxLjE5NDY0NDQgTDE2MS45NTEwNjMsNjcuNzEwMzkzMyBMMTYwLjMyNTA4OCw2Ny43MTAzOTMzIEwxNjAuMzI1MDg4LDUxLjE5NDY0NDQgWiBNMTYzLjMyNzQ2NCw1MS4xOTQ2NDQ0IEwxNjQuODkxMzE0LDUxLjE5NDY0NDQgTDE2NC44OTEzMTQsNjcuNzEwMzkzMyBMMTYzLjMyNzQ2NCw2Ny43MTAzOTMzIEwxNjMuMzI3NDY0LDUxLjE5NDY0NDQgWiIvPiYjeGE7ICAgICAgICA8cGF0aCBmaWxsPSIjRDNFQ0VDIiBkPSJNOTYuNzAzNzMyMiwxMDEuNDkxNjgyIEM5OS43MjI3MTEzLDEwMS40OTE2ODIgMTAyLjE3MDI0MywxMDMuOTQwMjg1IDEwMi4xNzAyNDMsMTA2Ljk1OTI2NCBDMTAyLjE3MDI0MywxMDkuOTc4MjQzIDk5LjcyMjcxMTMsMTEyLjQyNTc3NCA5Ni43MDM3MzIyLDExMi40MjU3NzQgQzkzLjY4NDIxNzYsMTEyLjQyNTc3NCA5MS4yMzYxNTA2LDEwOS45NzgyNDMgOTEuMjM2MTUwNiwxMDYuOTU5MjY0IEM5MS4yMzYxNTA2LDEwMy45NDAyODUgOTMuNjg0MjE3NiwxMDEuNDkxNjgyIDk2LjcwMzczMjIsMTAxLjQ5MTY4MiIvPiYjeGE7ICAgICAgICA8cGF0aCBmaWxsPSIjMzY0NTQ4IiBkPSJNOTYuNzAzNzMyMiwxMDMuMDQyNjc4IEM5Ny4yMDM5NDk4LDEwMy4wNDI2NzggOTcuNjgxMTM4MSwxMDMuMTM2OTM3IDk4LjEyMTM3MjQsMTAzLjMwNzc4MiBDOTcuNjQ0MTg0MSwxMDMuNTgzNTk4IDk3LjMyMTIzODUsMTA0LjEwMDQxOCA5Ny4zMjEyMzg1LDEwNC42OTE2ODIgQzk3LjMyMTIzODUsMTA1LjU3NDI5MyA5OC4wMzY3NTMxLDEwNi4yODg3MzYgOTguOTE5MzY0LDEwNi4yODg3MzYgQzk5LjUyNDAxNjcsMTA2LjI4ODczNiAxMDAuMDQ5NDA2LDEwNS45NTI5MzcgMTAwLjMyMDkzNywxMDUuNDU3MDA0IEMxMDAuNTEyNjY5LDEwNS45MTkxOTcgMTAwLjYxOTI0NywxMDYuNDI2OTEyIDEwMC42MTkyNDcsMTA2Ljk1OTI2NCBDMTAwLjYxOTI0NywxMDkuMTIxMzM5IDk4Ljg2NjM0MzEsMTEwLjg3NDI0MyA5Ni43MDM3MzIyLDExMC44NzQyNDMgQzk0LjU0MTY1NjksMTEwLjg3NDI0MyA5Mi43ODc2ODIsMTA5LjEyMTMzOSA5Mi43ODc2ODIsMTA2Ljk1OTI2NCBDOTIuNzg3NjgyLDEwNC43OTYxMTcgOTQuNTQxNjU2OSwxMDMuMDQyNjc4IDk2LjcwMzczMjIsMTAzLjA0MjY3OCIvPiYjeGE7ICAgICAgICA8cGF0aCBmaWxsPSIjMzY0NTQ4IiBkPSJNMCw5MC4xNjIzNDMxIEwyNTQuMzI3NDMxLDkwLjE2MjM0MzEgQzI0OC43ODk2OSw4OC43NTc1NTY1IDIzNi44MDY0MjcsODYuODYwMDUwMiAyMzguNzgyNjYxLDc5LjYwMjYxMDkgQzIyOC43MTM1MDYsOTEuMjU0MzU5OCAyMDQuNDI5OTI1LDg3Ljc3NjkzNzIgMTk4LjMwMTQ1Niw4Mi4wMzEzOTc1IEMxOTEuNDc2NzUzLDkxLjkyOTcwNzEgMTUxLjc0Njk0Niw4OC4xNjczNjQgMTQ4Ljk3NTkzMyw4MC40NTYzMDEzIEMxNDAuNDIwMjg1LDkwLjQ5NzA3MTEgMTEzLjkwODc1Myw5MC40OTcwNzExIDEwNS4zNTI1NjksODAuNDU2MzAxMyBDMTAyLjU4MDQ4NSw4OC4xNjczNjQgNjIuODUxMjEzNCw5MS45Mjk3MDcxIDU2LjAyNTk3NDksODIuMDMxMzk3NSBDNDkuODk3NTA2Myw4Ny43NzY5MzcyIDI1LjYxNjA2NjksOTEuMjU0MzU5OCAxNS41NDU4NDEsNzkuNjAyNjEwOSBDMTcuNTIyMDc1Myw4Ni44NjAwNTAyIDUuNTM4ODExNzIsODguNzU3NTU2NSAwLDkwLjE2MjM0MzEiLz4mI3hhOyAgICAgICAgPHBhdGggZmlsbD0iI0JERDlENyIgZD0iTTExMS4yMzczNTYsMTQwLjg4OTk3NSBDOTcuNjk3NzQwNiwxMzQuNDY0ODAzIDkwLjI2NTcwNzEsMTI1LjczMDgxMiA4Ni4xMzA2MTA5LDExNi4xOTU2MTUgQzgxLjEwMTY1NjksMTE3LjYzMTQ2NCA3NS4wNTU2NjUzLDExOC41NDg4ODcgNjguMDMxMTk2NywxMTguOTQzMDYzIEM2NS4zODQ5NzA3LDExOS4wOTE0MTQgNjIuNjAxNjQwMiwxMTkuMTY3NDY0IDU5LjY4MDEzMzksMTE5LjE2NzQ2NCBDNTYuMzEyNTAyMSwxMTkuMTY3NDY0IDUyLjc2Mzg0OTQsMTE5LjA2Nzg0OSA0OS4wMzg0NjAzLDExOC44NzAyMjYgQzYxLjQ1NDk5NTgsMTMxLjI3OTI2NCA3Ni43MzAzNzY2LDE0MC44MzM3NDEgMTA1LjAxMzU1NiwxNDEuMDA4MzM1IEMxMDcuMTAxNzI0LDE0MS4wMDgzMzUgMTA5LjE3NDg5NSwxNDAuOTY3NjMyIDExMS4yMzczNTYsMTQwLjg4OTk3NSIvPiYjeGE7ICAgICAgICA8cGF0aCBmaWxsPSIjRDNFQ0VDIiBkPSJNOTEuMTYwMTAwNCwxMjQuOTkzODc0IEM4OS4yODY2OTQ2LDEyMi40NTEwMTMgODcuNDY5NTIzLDExOS4yNTUyOTcgODYuMTMzODI0MywxMTYuMTk0NTQ0IEM4MS4xMDM3OTkyLDExNy42MzA5MjkgNzUuMDU2NzM2NCwxMTguNTQ4ODg3IDY4LjAzMTE5NjcsMTE4Ljk0MzA2MyBDNzIuODU2NjM2LDEyMS41NjI1MSA3OS43NTg0NjAzLDEyMy45ODk2OSA5MS4xNjAxMDA0LDEyNC45OTM4NzQiLz4mI3hhOyAgICA8L2c+JiN4YTs8L3N2Zz4=" vertex="1" parent="1">
          <mxGeometry x="875.35" y="597.5" width="89.3" height="75" as="geometry" />
        </mxCell>
        <mxCell id="yOC-pWLaPlWNzJLVpqbV-63" value="" style="shape=image;verticalLabelPosition=bottom;verticalAlign=top;imageAspect=0;aspect=fixed;image=data:image/svg+xml,PHN2ZyB4bWxuczp4bGluaz0iaHR0cDovL3d3dy53My5vcmcvMTk5OS94bGluayIgeG1sbnM9Imh0dHA6Ly93d3cudzMub3JnLzIwMDAvc3ZnIiBoZWlnaHQ9IjYwIiB3aWR0aD0iMTIwIiB2aWV3Qm94PSIwIDAgMTIwIDYwIj48c3R5bGU+LkN7ZmlsbC1ydWxlOmV2ZW5vZGR9PC9zdHlsZT48cGF0aCBkPSJNNDcuMjEyIDI1LjlINDMuNTN2LTIuMTk4aDkuODZWMjUuOWgtMy42ODJ2MTFoLTIuNDk1em04LjQ1IDkuMjA0YzEtLjAwNSAxLjk5NC0uMTU4IDIuOTUtLjQ1NWwuMzggMS44MmExMC4zNSAxMC4zNSAwIDAgMS0zLjU0My42MzJjLTMuMDMyIDAtNC4wOC0xLjQtNC4wOC0zLjcydi0yLjUyNmMwLTIuMDQuOS0zLjggMy45OTgtMy44czMuOCAxLjggMy44IDMuODc4djIuMDZoLTUuMzd2LjQ5M2MwIDEuMTU2LjQgMS42IDEuODc2IDEuNnptLTEuODk1LTQuMDZoMy4wN3YtLjQ3NGMwLS45LS4yNzgtMS41NC0xLjQ2NS0xLjU0cy0xLjYwNC42MzItMS42MDQgMS41NHoiLz48dXNlIHhsaW5rOmhyZWY9IiNCIi8+PHVzZSB4PSI1Ljg5OSIgeGxpbms6aHJlZj0iI0IiLz48cGF0aCBkPSJNNzkuNTc3IDM2Ljg3NUg3Ny42bC0uMTc3LS42MzJhNS4yOSA1LjI5IDAgMCAxLTIuODY4Ljg1M2MtMS43NjIgMC0yLjUyNi0xLjIwNi0yLjUyNi0yLjg2OCAwLTEuOTU4Ljg1My0yLjcgMi44LTIuN2gyLjMxOHYtMWMwLTEuMDY3LS4yOTctMS40NDYtMS44MzgtMS40NDZhMTMuNDcgMTMuNDcgMCAwIDAtMi42NzIuMjk3bC0uMjk3LTEuODM4YTEyLjU4IDEyLjU4IDAgMCAxIDMuMzAzLS40NTVjMy4wMzIgMCAzLjkyMiAxLjA2NyAzLjkyMiAzLjQ4N3ptLTIuNDEzLTMuNjQ0aC0xLjc4Yy0uOCAwLTEgLjIxNS0xIC45NDdzLjIxNS45NzMuOTczLjk3M2EzLjc5IDMuNzkgMCAwIDAgMS44MTktLjQ5M3ptOS44NC04LjJhNy4xNSA3LjE1IDAgMCAwLTEuMzgzLS4xNThjLS45NDcgMC0xLjA4Ni40MTctMS4wODYgMS4xNXYxLjIwNmgyLjQ1bC0uMTQgMS44OTVoLTIuMzE4djcuNzE4aC0yLjQxM1YyOS4xNmgtMS41NDd2LTEuODk1aDEuNTR2LTEuMzdjMC0yLjAwMi45MjgtMi45ODggMy4wNy0yLjk4OGE3LjY1IDcuNjUgMCAwIDEgMi4wNzguMjc4em00LjcxMiAxMi4wMzZjLTMuMzAzIDAtNC4xOTQtMS44Mi00LjE5NC0zLjhWMzAuODVjMC0xLjk3Ny45LTMuOCA0LjE5NC0zLjhzNC4yIDEuODIgNC4yIDMuOHYyLjQzOGMtLjAwNiAxLjk2NC0uODk3IDMuOC00LjIgMy44em0wLTcuOTc3Yy0xLjI2MyAwLTEuNzguNTc1LTEuNzggMS42NnYyLjU5NmMwIDEuMDg2LjQ5MyAxLjY2IDEuNzggMS42NnMxLjc4LS41NzUgMS43OC0xLjY2VjMwLjc2YzAtMS4wOTMtLjUtMS42NjctMS43OC0xLjY2N3ptMTAuNC4xNThhMTguNjMgMTguNjMgMCAwIDAtMi41MjYgMS40MXY2LjIxNWgtMi40NHYtOS42NDVoMi4wNGwuMTU4IDEuMDY3YTEwLjggMTAuOCAwIDAgMSAyLjUyNi0xLjI2M3ptNi42NCA3LjYyN3YtNi43MjdjMC0uNTEyLS4yMTUtLjc3LS43Ny0uNzctLjg4OC4xLTEuNzQ4LjM3Ni0yLjUyNi44MTV2Ni43aC0yLjR2LTkuNjQ1aDEuODM4bC4yNC44MTVhOS42NCA5LjY0IDAgMCAxIDMuODYtMS4wMSAxLjgzIDEuODMgMCAwIDEgMS44MTkgMS4wM2MxLjIwNC0uNjE2IDIuNTI3LS45NjcgMy44NzgtMS4wMyAxLjYwNCAwIDIuMTggMS4xMyAyLjE4IDIuODV2Ni45ODZoLTIuNDEzdi02LjcyN2MwLS41MTItLjIxNS0uNzctLjc3LS43N2E2LjM5IDYuMzkgMCAwIDAtMi41MjYuODE1djYuN3oiLz48ZyBjbGFzcz0iQyIgdHJhbnNmb3JtPSJtYXRyaXgoLjU0OTYyMSAwIDAgLjU0OTYyMSA2LjE3MTE0MSA0Mi43MjI3NDEpIj48cGF0aCBmaWxsPSIjNWM0ZWU1IiBkPSJNMzkuMS04LjcxM3YtLjE2bC0yMS4xNi0xMi4yMnYyNC40M2wyMS4xNiAxMi4yMnptMC0yNy4yOHYyNC40NGwtMjEuMTYtMTIuMjJ2LTI0LjQ0eiIvPjxwYXRoIGZpbGw9IiM0MDQwYjIiIGQ9Ik00MS40Mi0xMS41NTNsMjEuMTctMTIuMjJ2LTI0LjQ0bC0yMS4xNyAxMi4yMnoiLz48ZyBmaWxsPSIjNWM0ZWU1Ij48cGF0aCBkPSJNLTUuNTQtMzcuNDEzbDIxLjE2IDEyLjIydi0yNC40NGwtMjEuMTYtMTIuMjJ6Ii8+PHBhdGggZD0iTTUzLjY0LS40ODMiLz48cGF0aCBkPSJNMTcuOTQtMjEuMDkzIi8+PC9nPjwvZz48ZGVmcz48cGF0aCBkPSJNNjUuNjA1IDI5LjI1OGMtLjg3Ny40MDQtMS43MjIuODc1LTIuNTI2IDEuNDF2Ni4yMTVoLTIuNDQ0di05LjY0NWgyLjA0bC4xNTggMS4wNjdhMTAuOCAxMC44IDAgMCAxIDIuNTI2LTEuMjYzeiIgaWQ9IkIiLz48L2RlZnM+PC9zdmc+" vertex="1" parent="1">
          <mxGeometry x="69.78999999999999" y="597.5" width="150" height="75" as="geometry" />
        </mxCell>
      </root>
    </mxGraphModel>
  </diagram>
</mxfile>
